<svg xmlns="http://www.w3.org/2000/svg" width="74" height="102" viewBox="0 0 74 102">
  <title>api-data</title>
  <g>
    <path d="M73.979,24.442a1.95287,1.95287,0,0,0-.475-1.295L53.838.682a.112.112,0,0,1-.016-.013,1.97774,1.97774,0,0,0-.398-.334c-.043-.028-.086-.054-.131-.078a2.01093,2.01093,0,0,0-.395-.165c-.037-.011-.07-.027-.107-.035A1.94933,1.94933,0,0,0,52.332,0H4A4.00338,4.00338,0,0,0,0,4V98a4.004,4.004,0,0,0,4,4H70a4.00531,4.00531,0,0,0,4-4V24.666A1.88405,1.88405,0,0,0,73.979,24.442ZM70,67.916H4V4H50.332V24.465a2.00073,2.00073,0,0,0,2,2H70ZM17.262,90.648l-1.761,6.347H9.742l7.52-24.724h7.336l7.703,24.724H26.248l-1.907-6.347Zm6.273-4.18-1.541-5.245c-.44-1.468-.88-3.303-1.247-4.77h-.073c-.367,1.467-.734,3.338-1.137,4.77L18.07,86.468ZM35.569,72.602a45.80717,45.80717,0,0,1,7.557-.514c3.448,0,5.906.66,7.557,1.98a7.12077,7.12077,0,0,1,2.641,5.723A7.70984,7.70984,0,0,1,51.05,85.66c-1.907,1.761-4.732,2.604-8.033,2.604a9.53493,9.53493,0,0,1-1.908-.146v8.877H35.57l-.001-24.393Zm5.539,11.224a8.40758,8.40758,0,0,0,1.871.146c2.972,0,4.806-1.505,4.806-3.998,0-2.274-1.577-3.633-4.402-3.633a9.89814,9.89814,0,0,0-2.274.184l-.001,7.301ZM62.496,72.271V96.995H56.92V72.271Z"/>
    <path d="M54.129,22.859a2.8117,2.8117,0,0,0,.193-.965c0-4.131-8.926-6.36-17.327-6.36-8.394,0-17.317,2.229-17.317,6.36a2.80857,2.80857,0,0,0,.192.968l-.044.08a4.31115,4.31115,0,0,0-.574,2.091v5.112a4.274,4.274,0,0,0,.687,2.256l-.058.098a4.36708,4.36708,0,0,0-.629,2.188v5.11a4.22639,4.22639,0,0,0,.649,2.188l-.02.032a4.36079,4.36079,0,0,0-.629,2.187v5.111c0,4.543,7.793,8.101,17.743,8.101,9.959,0,17.753-3.557,17.753-8.101V44.204a4.31923,4.31923,0,0,0-.634-2.188l-.018-.029a4.272,4.272,0,0,0,.652-2.19v-5.11a4.32612,4.32612,0,0,0-.634-2.19l-.055-.094a4.30175,4.30175,0,0,0,.689-2.259V25.032a4.3545,4.3545,0,0,0-.574-2.093ZM52.846,49.314c0,2.935-6.506,6.2-15.851,6.2-9.337,0-15.845-3.265-15.845-6.2V44.507c2.914,2.669,8.909,4.371,15.845,4.371,6.944,0,12.938-1.704,15.851-4.373Zm0-9.518c0,2.932-6.506,6.2-15.851,6.2-9.337,0-15.845-3.268-15.845-6.2V34.989c2.914,2.667,8.909,4.371,15.845,4.371,6.944,0,12.938-1.704,15.851-4.374Zm0-9.653c0,2.932-6.506,6.2-15.851,6.2-9.337,0-15.845-3.267-15.845-6.2V25.89c2.848,2.414,9.451,3.665,15.845,3.665,6.401,0,13.001-1.251,15.851-3.665Z"/>
  </g>
</svg>
