<svg xmlns="http://www.w3.org/2000/svg" width="74" height="102" viewBox="0 0 74 102">
  <title>data-generic</title>
  <g>
    <path d="M73.98,24.443a1.97266,1.97266,0,0,0-.476-1.295L53.838.684c-.004-.006-.01-.008-.016-.014a1.99958,1.99958,0,0,0-.396-.334c-.043-.028-.086-.053-.131-.078A2.12884,2.12884,0,0,0,52.9.093c-.037-.011-.07-.026-.107-.036A1.96242,1.96242,0,0,0,52.334,0H4A4.00531,4.00531,0,0,0,0,4V98a4.00467,4.00467,0,0,0,4,4H70a4.00338,4.00338,0,0,0,4-4V24.667A2.11829,2.11829,0,0,0,73.98,24.443ZM4,97.917V4H50.334V24.466a2.00009,2.00009,0,0,0,2,2H70l.002,71.451Z"/>
    <polygon points="17 48.375 17 53.625 38 58.876 59 53.625 59 48.375 38 53.625 17 48.375"/>
    <polygon points="17 58.876 17 64.125 38 69.375 59 64.125 59 58.876 38 64.125 17 58.876"/>
    <polygon points="38 32.625 17 37.875 17 43.125 38 48.375 59 43.125 59 37.875 38 32.625"/>
  </g>
</svg>
