<svg xmlns="http://www.w3.org/2000/svg" width="74" height="102" viewBox="0 0 74 102">
  <title>geojson</title>
  <g>
    <path d="M39.614,79.569c-2.765,0-4.359,2.605-4.359,6.087,0,3.536,1.648,6.008,4.359,6.008,2.738,0,4.307-2.605,4.307-6.087C43.92,82.334,42.405,79.569,39.614,79.569Z"/>
    <path d="M23.944,62.606a2.01015,2.01015,0,0,0-1.881,1.98h3.601A1.76524,1.76524,0,0,0,23.944,62.606Z"/>
    <path d="M34.884,68.628c1.2,0,1.94-1.181,1.94-2.961,0-1.44-.561-2.921-1.94-2.921-1.44,0-2,1.5-2,2.94C32.884,67.367,33.584,68.628,34.884,68.628Z"/>
    <path d="M73.98,24.444a1.9769,1.9769,0,0,0-.475-1.295L53.837.684c-.004-.006-.01-.008-.017-.014a1.97156,1.97156,0,0,0-.396-.334c-.043-.028-.086-.053-.131-.078a2.10967,2.10967,0,0,0-.396-.165c-.037-.011-.069-.026-.106-.036A2.00142,2.00142,0,0,0,52.333,0H4A4.00531,4.00531,0,0,0,0,4V98a4.00467,4.00467,0,0,0,4,4H70a4.00338,4.00338,0,0,0,4-4V24.667A2.07644,2.07644,0,0,0,73.98,24.444ZM52.333,26.466h1.999c.015.302.032.602.032.913,0,10.393-8.959,17.375-17.328,17.375-.111,0-11.089-.403-11.089-14.814,0-7.094,4.406-10.921,8.553-10.921.076,0,.153.001.229.004a10.21965,10.21965,0,0,0-3.895,8.415,10.08955,10.08955,0,0,0,5.837,9.6,6.72959,6.72959,0,0,0,2.656.527c5.053,0,10.461-5.081,10.461-12.646,0-5.914-1.868-9.904-4.264-12.48a18.41334,18.41334,0,0,1,4.808,3.912v8.115A2.00222,2.00222,0,0,0,52.333,26.466Zm-9.227,1.009a10.03855,10.03855,0,0,0-5.876-9.616l-.004.011v-.024a8.32565,8.32565,0,0,0-2.725-.456c-4.936,0-10.181,4.398-10.181,12.549,0,6.173,1.877,10.025,4.188,12.434a16.87184,16.87184,0,0,1-8.874-14.955c0-10.393,8.959-17.374,17.329-17.374V8.964l.074,1.08c.36,0,.725.014,1.091.041,3.742.585,10.034,4.36,10.034,14.833,0,6.591-4.566,11.018-8.833,11.018-.068,0-.133-.006-.199-.009A10.15036,10.15036,0,0,0,43.106,27.475Zm-6.145,7.906a8.44273,8.44273,0,0,1-4.498-7.944,8.51753,8.51753,0,0,1,4.49-7.92,8.4329,8.4329,0,0,1,4.526,7.958A8.47066,8.47066,0,0,1,36.961,35.381ZM14.066,87.996c0,5.104-2.445,6.884-6.353,6.884a10.58582,10.58582,0,0,1-2.977-.425l.452-3.27a6.63532,6.63532,0,0,0,2.073.319c1.701,0,2.765-.771,2.765-3.535V76.673h4.04ZM12.925,68.268a4.63425,4.63425,0,0,0,1.48-.181v-2.84H12.324V62.866h5.021v7.102a15.08669,15.08669,0,0,1-4.501.76,7.59652,7.59652,0,0,1-5.481-1.8,6.75932,6.75932,0,0,1-1.9-4.921c.02-4.481,3.281-7.042,7.702-7.042a9.7187,9.7187,0,0,1,3.741.641l-.64,2.46a7.06713,7.06713,0,0,0-3.121-.58c-2.541,0-4.481,1.421-4.481,4.361A4.05613,4.05613,0,0,0,12.925,68.268ZM21.83,94.854a11.68777,11.68777,0,0,1-5.077-1.116l.824-3.322a10.24178,10.24178,0,0,0,4.492,1.116c1.861,0,2.844-.771,2.844-1.94,0-1.116-.851-1.755-3.004-2.499-2.977-1.062-4.944-2.711-4.944-5.315,0-3.058,2.578-5.37,6.778-5.37a10.48481,10.48481,0,0,1,4.572.904l-.904,3.242a8.3895,8.3895,0,0,0-3.721-.85c-1.754,0-2.605.823-2.605,1.728,0,1.143.983,1.647,3.322,2.524,3.164,1.17,4.625,2.818,4.625,5.343C29.033,92.302,26.747,94.854,21.83,94.854Zm3.014-26.327a8.06612,8.06612,0,0,0,2.701-.42l.4,2.061a9.24819,9.24819,0,0,1-3.541.62c-3.321,0-5.221-1.921-5.221-4.981,0-2.48,1.541-5.221,4.941-5.221,3.161,0,4.361,2.46,4.361,4.881a7.21049,7.21049,0,0,1-.1,1.2H22.083C22.164,67.928,23.424,68.527,24.844,68.527ZM39.402,94.88c-5.29,0-8.427-4.014-8.427-9.144,0-5.369,3.456-9.383,8.719-9.383,5.502,0,8.506,4.12,8.506,9.091C48.2,91.345,44.665,94.88,39.402,94.88ZM29.743,65.767a4.89372,4.89372,0,0,1,5.241-5.201,4.75669,4.75669,0,0,1,4.981,5.021,4.90811,4.90811,0,0,1-5.161,5.221A4.79169,4.79169,0,0,1,29.743,65.767Zm35.95,28.821H61.439l-3.827-6.911a60.77163,60.77163,0,0,1-3.11-6.326h-.105c.133,2.393.186,4.918.186,7.842v5.396H50.86V76.673h4.731l3.722,6.565a56.44067,56.44067,0,0,1,2.924,6.14h.054a73.97279,73.97279,0,0,1-.319-7.496V76.673h3.722V94.588ZM4,50.381V4H50.333v9.99A19.76629,19.76629,0,0,0,38.312,8.467a5.36637,5.36637,0,0,0-1.351-.047V8.416c-9.155,0-18.957,7.635-18.957,19.001,0,11.714,9.84,18.963,18.957,18.963v-.002l.074.002c9.154,0,18.957-7.636,18.957-19.002,0-.311-.032-.608-.047-.913H70l.002,23.915H4Z"/>
  </g>
</svg>
