<svg xmlns="http://www.w3.org/2000/svg" width="74" height="102" viewBox="0 0 74 102">
  <title>gml</title>
  <path d="M74,24.4a2.10615,2.10615,0,0,0-.5-1.3L53.8.7h0c-.1-.1-.3-.2-.399-.3L53.3.3c-.1-.1-.3-.1-.4-.2h-.1a.90151.90151,0,0,0-.5-.1H4A4.01176,4.01176,0,0,0,0,4V98a4.01176,4.01176,0,0,0,4,4H70a4.01176,4.01176,0,0,0,4-4V24.4ZM23.5,93.2a24.87784,24.87784,0,0,1-7.2,1.2c-3.9,0-6.8-1-8.8-2.9a10.256,10.256,0,0,1-3-7.9c0-7.199,5.3-11.3,12.3-11.3a13.48431,13.48431,0,0,1,6,1.101l-1,3.899a12.391,12.391,0,0,0-5-.899c-4.1,0-7.2,2.3-7.2,7,0,4.5,2.8,7.1,6.8,7.1a6.59869,6.59869,0,0,0,2.4-.3v-4.5H15.5v-3.8h8ZM46,94.4h0l-.3-8.3c-.1-2.6-.2-5.7-.2-8.9h-.1C44.7,80,43.8,83,43,85.6L40.4,94H36.6l-2.3-8.4c-.7-2.5-1.4-5.6-2-8.399h-.1C32.1,80.1,32,83.5,31.8,86.1l-.4,8.2H26.9l1.4-21.6h6.5l2.1,7.2c.7,2.5,1.3,5.199,1.8,7.699h.1c.601-2.5,1.3-5.399,2.101-7.8l2.3-7.2H49.6L50.8,94.2H46Zm8.5,0V72.8h4.9V90.3H68v4.1ZM70,67.9H4V4H50.3V24.5a2.00588,2.00588,0,0,0,2,2H70ZM7.9,41.4,19.4,36v2.5l-8.7,3.8h0l8.7,3.8v2.5L7.9,43.5Zm59.4,2.2L55.8,48.9V46.4l8.9-3.8h0l-8.9-3.8V36.3l11.5,5.3ZM37.4,28.7A13.8,13.8,0,1,0,51.2,42.5,13.82766,13.82766,0,0,0,37.4,28.7Zm5.1,5.5,1-.7a4.45748,4.45748,0,0,1-.3-1.6c.2-.1,1.2.4,2,1.3-.6,2.1-1.8,1.8-1.8,1.8S42.4,35,42.5,34.2ZM34.2,46.3a9.33055,9.33055,0,0,1-.7,1.5,1.67563,1.67563,0,0,1-.7.9,1.79082,1.79082,0,0,0-.5.7l-.1,1a4.052,4.052,0,0,0,.3,1.2c.2.3-.7,2.1-.7,2.1-.5-.101-.8-.7-1-1.2a3.2585,3.2585,0,0,1-.4-1.3c.1-.6-.5-.8-.7-1.2a2.11169,2.11169,0,0,1-.4-1c0-.3-.7-.7-.7-.7a11.47208,11.47208,0,0,1-1.4-.8,4.25562,4.25562,0,0,1-.4-1.7,4.87169,4.87169,0,0,1,.2-1.5s.5-.4.2-.7a2.79762,2.79762,0,0,1-.2-1.1l-.6-.6a5.7642,5.7642,0,0,1-.5-.9,1.12842,1.12842,0,0,1,.1-.8,4.86863,4.86863,0,0,0-.1-1.2c2.3-5.6,6.2-7,6.2-7l.3,1.3a2.50852,2.50852,0,0,1-1,.1,2.79821,2.79821,0,0,0-.6-.1l-.5.7a1.97272,1.97272,0,0,0-.2.7,2.17984,2.17984,0,0,0,.1.6s.8-.1.8-.3a1.03435,1.03435,0,0,0-.1-.4l-.1-.4a4.214,4.214,0,0,1,2-.2c1.5.1.9,1.2,1.5,1.4s-.5,1.1-.7,1.6-.6-.6-.6-.6.4-.4-.2-.6c-.6-.1-1,1.1-.7,1.1a.53033.53033,0,0,1,.6.6,9.41623,9.41623,0,0,1-.4,1,3.32992,3.32992,0,0,1-1,1.2s-.3-.2-.1.2-.1,1.2-.1,1.5c0,.2-.7-.4-.9-1.1-.1-.6-.8-.1-1.1,0a.735.735,0,0,1-.8-.4c-.1-.3-1.2.6-1.5.8s-.2.7.3.4c.5-.2.9-.1.8.4s-.6.2-.6.5c.1.3.6.6.7,1.1.1.4,1.3.1,1.7-.1s1.4-.4,1.5.1,1.3.7,1.7.8a3.72683,3.72683,0,0,1,1.8.7C35.2,45,34.3,46,34.2,46.3ZM37,31.9c-.1.6-1,1.4-.9,1.7.1.2,0,1.3-.9.4s-1.7-1.2-1.7-1.9c0-.1.9-.3.9-.5,1.3-1.2,3.4-1,3.6-.7C37.7,31.4,37.1,31.2,37,31.9ZM47.7,36c.8,1.4,2.1,5.2,1.6,5.9a4.20424,4.20424,0,0,1-.5-.2H47.2l1,1.2a1.71085,1.71085,0,0,0,1.2.7c-.4,5.2-4.7,8.5-4.7,8.5-.7-.7-.3-1.2-.3-1.2l.199-1,.101-1.7s0-1.7-1.601-.9c-1.8.5-1,.5-2.8.6s-1.5-3.6-1.5-3.6c0-5.6,4.3-1.4,4.3-1.4,2.5,1.6,2.801-1.4,2.801-1.4l1.8-.7.2-.8-.3-1.1L45,37.8a2.25958,2.25958,0,0,0,.4,1.9s-.2,1.2-.801.9l-1.5-.8a1.53973,1.53973,0,0,0-1.3.3,3.095,3.095,0,0,1-2.2,0,1.89883,1.89883,0,0,1,1-1.3l.7-.5a3.33845,3.33845,0,0,1,0-1.5c.2-.7.5-.1,1.101-.6.699-.5,1.1,1,2.1.8s.5-.3,1.2-.7c.7-.3,1.2.7,1.2.7l1.3.2C47.8,37.1,47.6,35.6,47.7,36Z"/>
</svg>
