<svg xmlns="http://www.w3.org/2000/svg" width="74" height="102" viewBox="0 0 74 102">
  <title>html</title>
  <g>
    <path d="M73.98,24.442a1.9851,1.9851,0,0,0-.476-1.295L53.838.682a.11226.11226,0,0,0-.016-.013,1.96639,1.96639,0,0,0-.396-.334c-.043-.028-.086-.054-.131-.078A2.06281,2.06281,0,0,0,52.9.092c-.037-.011-.07-.027-.109-.035A1.94561,1.94561,0,0,0,52.334,0H4A4.00467,4.00467,0,0,0,0,4V98a4.00531,4.00531,0,0,0,4,4H70a4.00531,4.00531,0,0,0,4-4V24.666A2.11837,2.11837,0,0,0,73.98,24.442ZM4,4H50.334V24.465a2.00009,2.00009,0,0,0,2,2H70l.002,41.451H4ZM19.418,92.465H15.41V84.824H8.791v7.641H4.76V74.203H8.791v7.018H15.41V74.203h4.008ZM35.236,77.672h-4.85V92.465H26.353V77.672H21.582V74.203H35.236ZM52.559,92.465l-.264-6.99c-.078-2.195-.158-4.85-.158-7.506h-.078c-.555,2.33-1.293,4.932-1.979,7.072l-2.16,7.125H44.783l-1.898-7.07c-.58-2.141-1.188-4.742-1.609-7.127h-.053c-.104,2.467-.186,5.284-.313,7.561l-.318,6.937H36.875l1.133-18.262h5.353L45.1,80.3c.555,2.113,1.106,4.39,1.504,6.53h.078c.502-2.114,1.106-4.523,1.688-6.557l1.898-6.069h5.246l.975,18.262-3.93-.001Zm18.115,0h-11.1V74.203h4.033V88.996h7.065l.002,3.469Z"/>
    <polygon points="14.543 46.127 29.865 53.245 29.865 49.862 18.277 44.787 18.277 44.723 29.865 39.647 29.865 36.264 14.543 43.382 14.543 46.127"/>
    <polygon points="32.23 54.521 35.453 54.521 42.283 31.38 39.061 31.38 32.23 54.521"/>
    <polygon points="44.137 39.647 55.98 44.723 55.98 44.787 44.137 49.862 44.137 53.245 59.457 46.223 59.457 43.286 44.137 36.264 44.137 39.647"/>
  </g>
</svg>
