<svg xmlns="http://www.w3.org/2000/svg" width="74" height="102" viewBox="0 0 74 102">
  <title>info</title>
  <g>
    <path d="M63.309,51A26.309,26.309,0,1,1,37,24.691,26.31612,26.31612,0,0,1,63.309,51ZM41.933,34.352a.68978.68978,0,0,0-.342-.617,1.32158,1.32158,0,0,0-.822-.274H33.233a1.3174,1.3174,0,0,0-.822.274.68669.68669,0,0,0-.342.617l.582,21.273c0,.479.514.856,1.165.856h6.337a1.08321,1.08321,0,0,0,1.165-.856ZM41.385,60.9a1.10535,1.10535,0,0,0-1.062-1.131H33.746a1.14006,1.14006,0,0,0-1.13,1.131v6.508a1.14072,1.14072,0,0,0,1.13,1.131h6.577a1.10535,1.10535,0,0,0,1.062-1.131Z"/>
    <path d="M70,0H4A4.004,4.004,0,0,0,0,4V98a4.004,4.004,0,0,0,4,4H70a4.00531,4.00531,0,0,0,4-4V4A4.00531,4.00531,0,0,0,70,0Zm0,97.916H4V4.084H70Z"/>
  </g>
</svg>
