<svg xmlns="http://www.w3.org/2000/svg" width="74" height="102" viewBox="0 0 74 102">
  <title>kml</title>
  <g>
    <path d="M73.981,24.444a1.96745,1.96745,0,0,0-.476-1.295L53.837.684c-.004-.006-.01-.008-.016-.014a1.99958,1.99958,0,0,0-.396-.334c-.043-.028-.086-.053-.131-.078A2.11978,2.11978,0,0,0,52.9.093c-.037-.011-.07-.026-.107-.036A2.01863,2.01863,0,0,0,52.333,0H4A4.00531,4.00531,0,0,0,0,4V98a4.004,4.004,0,0,0,4,4H70a4.00274,4.00274,0,0,0,4-4V24.668C74,24.593,73.988,24.518,73.981,24.444ZM19.361,94.949,14.29,86.007,12.508,88.19v6.76H7.868V74.238h4.64v9.155h.093c.461-.799.952-1.534,1.414-2.272l4.701-6.883h5.747L17.61,83.056l7.221,11.893Zm25.196,0L44.25,87.02c-.092-2.489-.185-5.501-.185-8.512h-.092c-.646,2.644-1.505,5.593-2.304,8.021l-2.521,8.082H35.491L33.279,86.59c-.676-2.428-1.382-5.378-1.875-8.081h-.062c-.123,2.796-.215,5.991-.368,8.573l-.369,7.865H26.272l1.322-20.711h6.238L35.86,81.15c.645,2.396,1.29,4.979,1.751,7.405h.093c.584-2.396,1.291-5.133,1.967-7.437l2.211-6.883h6.115l1.137,20.711H44.557Zm21.109,0H52.727V74.238h4.702V91.015h8.236v3.934ZM4,67.917V4.001H50.333V24.467a2.00073,2.00073,0,0,0,2,2H70l.002,41.45Z"/>
    <path d="M36.375,11.945A24.57508,24.57508,0,1,1,11.832,36.406,24.59516,24.59516,0,0,1,36.375,11.945ZM14.604,29.851c.08.057.16.112.24.169a6.25615,6.25615,0,0,0,.724-.448c.485-.396.939-.833,1.421-1.233,2.892-2.401,6.04-3.103,9.513-1.355a33.0824,33.0824,0,0,1,3.445,1.933c4.835,3.209,9.569,6.578,14.483,9.66a37.02986,37.02986,0,0,0,12.677,5.071c.703.137,1.02-.047,1.152-.675.184-.855.291-1.729.522-2.57.153-.553-.051-.758-.521-.868a16.97059,16.97059,0,0,1-6.573-3.15c-3.532-2.756-6.964-5.644-10.386-8.538-2.369-2.005-4.619-4.15-6.979-6.167-3.205-2.735-6.961-3.24-10.958-2.44a6.07,6.07,0,0,0-2.838,1.049,19.89579,19.89579,0,0,0-5.395,7.83C14.924,28.684,14.778,29.274,14.604,29.851ZM55.169,49.37c-.092-.098-.182-.194-.273-.292-.29.073-.582.14-.87.219a30.12543,30.12543,0,0,1-9.427,1.426,60.833,60.833,0,0,1-8.263-1.033c-4.708-.895-9.07-2.855-13.48-4.666a14.46291,14.46291,0,0,0-4.396-1.168,2.33081,2.33081,0,0,0-2.137,3.596,22.67648,22.67648,0,0,0,9.458,9.302,10.51169,10.51169,0,0,0,1.239.444c-.108-.537-.155-.838-.229-1.129-.54-2.146.336-3.045,2.535-2.591.306.063.613.125.917.204A39.94446,39.94446,0,0,0,46.33,54.864c2.883-.436,5.701-.994,7.506-3.651C54.261,50.584,54.724,49.982,55.169,49.37ZM29.876,14.768c.016.131.032.26.048.391a6.03171,6.03171,0,0,0,.685.112c1.188.066,2.376.108,3.563.18a15.88749,15.88749,0,0,1,11.121,5.02c2.289,2.479,4.213,5.293,6.367,7.899a25.95267,25.95267,0,0,0,3.141,3.218,1.96347,1.96347,0,0,0,2.605.036c.79-.644.917-1.257.514-2.452a21.57321,21.57321,0,0,0-7.434-10.417,22.59143,22.59143,0,0,0-17.292-4.712C32.077,14.191,30.982,14.522,29.876,14.768Z"/>
  </g>
</svg>
