<svg xmlns="http://www.w3.org/2000/svg" width="74" height="102" viewBox="0 0 74 102">
  <title>ods</title>
  <g>
    <path d="M38.447,77.096a10.31484,10.31484,0,0,0-2.236.193V91.58a9.03549,9.03549,0,0,0,1.719.098c4.473.033,7.389-2.43,7.389-7.647C45.352,79.494,42.693,77.096,38.447,77.096Z"/>
    <path d="M17.51,77.029c-3.338,0-5.281,3.176-5.281,7.422,0,4.277,2.009,7.291,5.314,7.291,3.338,0,5.25-3.176,5.25-7.42C22.793,80.4,20.913,77.029,17.51,77.029Z"/>
    <path d="M73.979,24.443a1.9594,1.9594,0,0,0-.475-1.295L53.838.684c-.006-.006-.012-.008-.016-.014a1.97774,1.97774,0,0,0-.398-.334c-.043-.029-.086-.053-.131-.078a2.077,2.077,0,0,0-.395-.166c-.037-.01-.07-.025-.107-.035A2.0031,2.0031,0,0,0,52.332,0H4A4.004,4.004,0,0,0,0,4V98a4.004,4.004,0,0,0,4,4H70a4.00531,4.00531,0,0,0,4-4V24.666A1.88708,1.88708,0,0,0,73.979,24.443ZM17.283,95.664c-6.48,0-10.272-4.895-10.272-11.115,0-6.547,4.181-11.439,10.63-11.439,6.707,0,10.369,5.023,10.369,11.05C28.01,91.32,23.668,95.664,17.283,95.664Zm29.655-2.949c-2.301,1.912-5.799,2.818-10.078,2.818a42.75187,42.75187,0,0,1-5.605-.324V73.758a44.15342,44.15342,0,0,1,6.677-.455c4.146,0,6.838.744,8.942,2.332,2.269,1.688,3.694,4.375,3.694,8.234C50.568,88.049,49.045,90.932,46.938,92.715Zm12.22,2.918a14.293,14.293,0,0,1-6.189-1.33l1.004-4.084a12.58649,12.58649,0,0,0,5.478,1.361c2.271,0,3.468-.939,3.468-2.365,0-1.361-1.037-2.139-3.662-3.078-3.629-1.264-5.995-3.272-5.995-6.449,0-3.727,3.111-6.578,8.265-6.578a13.37543,13.37543,0,0,1,5.574,1.103l-1.103,3.984a10.395,10.395,0,0,0-4.57-1.035c-2.139,0-3.176.973-3.176,2.106,0,1.394,1.231,2.008,4.052,3.076,3.856,1.426,5.672,3.437,5.672,6.516C67.973,92.52,65.152,95.633,59.158,95.633ZM70,67.916H4V4H50.332V24.465a2.00009,2.00009,0,0,0,2,2H70Z"/>
    <path d="M13.723,28.656V60.324H60.277V28.656ZM57.436,57.475H41.703V54.227H57.435v3.248Zm-16.545,0H33.28V54.227h7.611Zm-8.424,0H25.362V54.227h7.105Zm-7.917,0H16.565V54.227H24.55ZM41.703,37.478H57.435v3.654H41.703Zm0,4.467H57.435v3.316H41.703Zm0,4.129H57.435v3.652H41.703Zm15.733,4.465v2.875H41.703V50.539ZM33.279,31.904h7.612v4.764H33.279Zm0,5.574h7.612v3.654H33.279Zm0,4.467h7.612v3.316H33.279Zm0,4.129h7.612v3.652H33.279Zm7.612,4.465v2.875H33.28V50.539ZM25.361,37.478h7.105v3.654H25.361Zm0,4.467h7.105v3.316H25.361Zm0,4.129h7.105v3.652H25.361Zm7.106,4.465v2.875H25.362V50.539ZM16.564,31.904h7.985v4.764H16.564Zm0,5.574h7.985v3.654H16.564Zm0,4.467h7.985v3.316H16.564Zm0,4.129h7.985v3.652H16.564Zm7.986,4.465v2.875H16.565V50.539Z"/>
  </g>
</svg>
