<svg xmlns="http://www.w3.org/2000/svg" width="74" height="102" viewBox="0 0 74 102">
  <title>shapefile</title>
  <g>
    <path d="M46.226,33.052v-2.39H44.222L30.725,14.556V11.174H26.647v4.079h2.966L39.705,27.295a20.96646,20.96646,0,0,0-24.052.764h-3.11v3.742h3.742V29.207a19.884,19.884,0,0,1,12.256-4.032,19.6155,19.6155,0,0,1,13.862,6.009c.027.029.048.06.076.088v3.13h2.445a19.778,19.778,0,0,1-1.52,23.104H40.609V61.25H44.35V58.404a21.08135,21.08135,0,0,0,3.203-21.74L57.371,48.38v3.875H61.45V48.173H58.895Zm-16.803-19.1H27.948V12.476h1.475ZM60.152,50.951H58.678V49.478h1.474Z"/>
    <path d="M50.943,80.35a5.72746,5.72746,0,0,0-1.302.104v4.179a4.82274,4.82274,0,0,0,1.07.084c1.701,0,2.751-.861,2.751-2.289C53.462,81.126,52.559,80.35,50.943,80.35Z"/>
    <path d="M37.986,80.412h-.042c-.21.84-.42,1.91-.651,2.729l-.84,3.003h3.129L38.7,83.142C38.448,82.302,38.196,81.252,37.986,80.412Z"/>
    <path d="M73.98,24.443a1.9769,1.9769,0,0,0-.475-1.295L53.837.684c-.004-.006-.01-.008-.017-.014a1.97156,1.97156,0,0,0-.396-.334c-.043-.028-.086-.053-.131-.078a2.10967,2.10967,0,0,0-.396-.165c-.037-.011-.069-.026-.106-.036A2.00142,2.00142,0,0,0,52.333,0H4A4.00531,4.00531,0,0,0,0,4V98a4.00467,4.00467,0,0,0,4,4H70a4.00338,4.00338,0,0,0,4-4V24.667A2.11829,2.11829,0,0,0,73.98,24.443ZM10.35,92.38a9.21255,9.21255,0,0,1-4.01-.882l.651-2.625a8.08684,8.08684,0,0,0,3.548.883c1.47,0,2.247-.609,2.247-1.533,0-.882-.672-1.386-2.373-1.974-2.352-.84-3.905-2.142-3.905-4.199,0-2.415,2.037-4.241,5.354-4.241a8.2597,8.2597,0,0,1,3.611.714l-.714,2.562a6.6189,6.6189,0,0,0-2.939-.672c-1.386,0-2.058.65-2.058,1.365,0,.902.777,1.301,2.625,1.994,2.499.924,3.653,2.226,3.653,4.221C16.04,90.364,14.234,92.38,10.35,92.38Zm19.549-.21H26.708V86.249h-5.27V92.17H18.247V78.019h3.191v5.438h5.27V78.019h3.191Zm11.236,0-1.092-3.633H35.99L34.982,92.17H31.686L35.99,78.019h4.199L44.598,92.17Zm14.196-6.488a6.66006,6.66006,0,0,1-4.598,1.491,5.493,5.493,0,0,1-1.092-.084V92.17H46.47V78.207a26.219,26.219,0,0,1,4.325-.293,6.78492,6.78492,0,0,1,4.325,1.133,4.07746,4.07746,0,0,1,1.512,3.275A4.41012,4.41012,0,0,1,55.331,85.682ZM67.7,92.17H58.693V78.019h8.713v2.624H61.885v2.939h5.207v2.604H61.885v3.359H67.7ZM4,67.917V4H50.333V24.466a2.00073,2.00073,0,0,0,2,2H70l.002,41.451Z"/>
  </g>
</svg>
