<svg xmlns="http://www.w3.org/2000/svg" width="74" height="102" viewBox="0 0 74 102">
  <title>sqlite</title>
  <g>
    <path d="M73.981,24.443a1.96745,1.96745,0,0,0-.476-1.295L53.837.684c-.004-.006-.01-.008-.016-.014a1.99958,1.99958,0,0,0-.396-.334c-.043-.028-.086-.053-.131-.078A2.11978,2.11978,0,0,0,52.9.093c-.037-.011-.07-.026-.107-.036A2.01863,2.01863,0,0,0,52.333,0H4A4.00531,4.00531,0,0,0,0,4V98a4.004,4.004,0,0,0,4,4H70a4.00274,4.00274,0,0,0,4-4V24.667C74,24.592,73.988,24.518,73.981,24.443ZM4.611,87.917a8.87987,8.87987,0,0,0,3.905.972c1.616,0,2.472-.67,2.472-1.688,0-.971-.74-1.523-2.611-2.171-2.589-.926-4.297-2.357-4.297-4.623,0-2.656,2.241-4.665,5.891-4.665a9.13723,9.13723,0,0,1,3.975.784l-.786,2.82a7.26194,7.26194,0,0,0-3.234-.742c-1.526,0-2.265.718-2.265,1.504,0,.993.855,1.432,2.888,2.196,2.75,1.015,4.02,2.446,4.02,4.642,0,2.611-1.986,4.83-6.26,4.83a10.16435,10.16435,0,0,1-4.414-.971Zm25.697,6.308a61.35332,61.35332,0,0,1-6.167-2.195,3.44149,3.44149,0,0,0-1.063-.231c-3.535-.231-6.816-2.818-6.816-7.924,0-4.689,2.958-8.181,7.625-8.181,4.735,0,7.347,3.605,7.347,7.88,0,3.534-1.64,6.029-3.674,6.954v.093c1.18.346,2.52.647,3.743.877ZM27.513,83.712c0-2.865-1.339-5.223-3.744-5.223-2.403,0-3.789,2.357-3.789,5.292,0,2.958,1.41,5.221,3.789,5.221C26.149,89.002,27.513,86.761,27.513,83.712Zm6.065-7.741h3.51V88.587h6.193v2.956H33.578Zm15.297,1.132a1.74968,1.74968,0,0,1-1.892,1.758,1.76005,1.76005,0,1,1,1.892-1.758Zm-3.626,14.44V80.246h3.515V91.544H45.249ZM55.512,77.196v3.05H58.03v2.588H55.512v4.09c0,1.362.347,1.987,1.385,1.987a4.20261,4.20261,0,0,0,1.039-.093l.026,2.656a7.38831,7.38831,0,0,1-2.266.302,3.75007,3.75007,0,0,1-2.656-.971,4.68457,4.68457,0,0,1-.971-3.352v-4.62H50.568V80.245h1.501V78.143Zm7.142,9.819c.094,1.457,1.55,2.149,3.19,2.149a9.32657,9.32657,0,0,0,3.119-.485l.46,2.38a10.6934,10.6934,0,0,1-4.087.717c-3.838,0-6.031-2.219-6.031-5.753,0-2.865,1.779-6.031,5.708-6.031,3.649,0,5.034,2.842,5.034,5.638a8.53849,8.53849,0,0,1-.113,1.386h-7.28Zm4.135-2.401a2.03824,2.03824,0,0,0-1.986-2.288,2.32068,2.32068,0,0,0-2.171,2.288ZM4,67.917V4H50.333V24.466a2.00073,2.00073,0,0,0,2,2H70l.002,41.451Z"/>
    <path d="M54.307,18.8a3.56137,3.56137,0,0,0-4.405-.28H22.278a4.421,4.421,0,0,0-4.416,4.416V51.813a4.421,4.421,0,0,0,4.416,4.416H39.386a13.77675,13.77675,0,0,0,.745,3.396l.269-.147a20.61546,20.61546,0,0,1-.713-6.897,52.50519,52.50519,0,0,1,2.888-14.438c2.995-7.912,7.151-14.26,10.955-17.291-3.467,3.13-8.158,13.264-9.563,17.017a68.01314,68.01314,0,0,0-3.358,11.925c1.158-3.543,4.905-5.065,4.905-5.065s1.838-2.266,3.985-5.504a39.00363,39.00363,0,0,0-4.105,1.093c-1.044.438-1.325.587-1.325.587a35.75389,35.75389,0,0,1,6.281-2.991C54.338,31.629,58.684,22.704,54.307,18.8ZM40.068,39.985c.055.209.104.405.143.572.093.395.143.651.143.651s-.032-.125-.168-.515c-.024-.075-.054-.157-.087-.254-.016-.04-.035-.088-.058-.139-.239-.556-.9-1.729-1.192-2.24-.249.734-.469,1.421-.652,2.043a18.0863,18.0863,0,0,1,1.354,4.173s-.045-.17-.257-.767a28.3934,28.3934,0,0,0-1.342-2.546,6.02476,6.02476,0,0,0-.394,2.57,8.90685,8.90685,0,0,1,.735,2.062c.496,1.912.843,4.24.843,4.24s.011.155.031.392c-.052,1.181-.042,2.393.015,3.551H22.278a1.96659,1.96659,0,0,1-1.965-1.965V22.936a1.96723,1.96723,0,0,1,1.965-1.965H46.986c-3.564,3.948-6.833,10.93-7.862,16.299A15.31684,15.31684,0,0,1,40.068,39.985Z"/>
  </g>
</svg>
