<svg xmlns="http://www.w3.org/2000/svg" width="74" height="102" viewBox="0 0 74 102">
  <title>tiff</title>
  <g>
    <path d="M73.98,24.442a1.97658,1.97658,0,0,0-.478-1.295L53.838.682a.112.112,0,0,1-.016-.013,1.97774,1.97774,0,0,0-.398-.334c-.043-.028-.086-.054-.131-.078a1.96158,1.96158,0,0,0-.395-.165c-.037-.011-.07-.027-.107-.035A1.94933,1.94933,0,0,0,52.332,0H4A4.00467,4.00467,0,0,0,0,4V98a4.00531,4.00531,0,0,0,4,4H70a4.00531,4.00531,0,0,0,4-4V24.666A2.11837,2.11837,0,0,0,73.98,24.442ZM22.832,76.467H16.209V96.121H10.703V76.467H4.187V71.86H22.832Zm8.426,19.654H25.75V71.859h5.508ZM50.84,76.359H41.518v5.543h8.711v4.463H41.518v9.756H36.01V71.859H50.84Zm18.972,0H60.488v5.543H69.2v4.463H60.488v9.756H54.982V71.859h14.83ZM4,67.916V4H50.332V24.465a2.00073,2.00073,0,0,0,2,2H70V67.916Z"/>
    <path d="M57.298,30.166H36.786L35.29,27.154a1.62223,1.62223,0,0,0-1.405-.803H24.709a1.74256,1.74256,0,0,0-1.277.803l-1.406,3.012H16.7a4.019,4.019,0,0,0-4.017,4.02V58.303A4.01917,4.01917,0,0,0,16.7,62.324H57.299a4.01981,4.01981,0,0,0,4.02-4.021V34.186A4.02173,4.02173,0,0,0,57.298,30.166ZM42.928,56.494H36.907c-.829-1.91-1.843-4.973-3.376-4.619-1.691.385-2.597,4.1-2.713,4.619h-.029c-.116-.561-1.086-4.844-3.481-6.992-2.444-2.191-4.819,6.223-5.032,6.992H17.005V36.196H42.93V56.494Zm9.261-3.107a7.235,7.235,0,1,1,7.231-7.235A7.24455,7.24455,0,0,1,52.189,53.387Z"/>
    <path d="M52.189,39.721a6.431,6.431,0,1,0,6.43,6.431A6.439,6.439,0,0,0,52.189,39.721Zm-3.718,8.541-2.111-2.11,2.111-2.11Zm3.718,3.484-2.113-2.111h4.221Zm-2.113-9.078,2.113-2.11,2.106,2.11Zm5.362,5.594V44.041l2.11,2.11Z"/>
    <path d="M30.426,43.423a8.45261,8.45261,0,0,0,1.508-.131,5.284,5.284,0,0,0,1.875.326c1.787,0,3.233-.785,3.233-1.749,0-.965-1.446-1.747-3.233-1.747a5.28284,5.28284,0,0,0-1.813.299,1.23386,1.23386,0,0,0-.812-.299h-.473a1.11872,1.11872,0,0,0-1.141.926c-1.446.139-2.523.604-2.523,1.164C27.047,42.883,28.561,43.423,30.426,43.423Z"/>
    <circle cx="23.633" cy="41.556" r="1.448"/>
  </g>
</svg>
