<svg xmlns="http://www.w3.org/2000/svg" width="74" height="102" viewBox="0 0 74 102">
  <title>vector-generic</title>
  <g>
    <path d="M73.98,24.443a1.9769,1.9769,0,0,0-.475-1.295L53.837.684c-.004-.006-.01-.008-.017-.014a1.97156,1.97156,0,0,0-.396-.334c-.043-.028-.086-.053-.131-.078a2.10967,2.10967,0,0,0-.396-.165c-.037-.011-.069-.026-.106-.036A2.00142,2.00142,0,0,0,52.333,0H4A4.00531,4.00531,0,0,0,0,4V98a4.00467,4.00467,0,0,0,4,4H70a4.00338,4.00338,0,0,0,4-4V24.667A2.11829,2.11829,0,0,0,73.98,24.443ZM4,4H50.333V24.466a2.00073,2.00073,0,0,0,2,2H70l.002,71.451H4Z"/>
    <path d="M58.899,63.176,46.226,48.052v-2.39H44.222L30.725,29.556V26.174H26.647v4.079h2.966L39.705,42.295a20.96647,20.96647,0,0,0-24.052.764h-3.11v3.742h3.742V44.207a19.884,19.884,0,0,1,12.256-4.032,19.61549,19.61549,0,0,1,13.862,6.009c.027.029.048.06.076.088v3.13h2.445a19.778,19.778,0,0,1-1.52,23.104H40.609V76.25H44.35V73.404a21.08135,21.08135,0,0,0,3.203-21.74L57.371,63.38v3.875H61.45V63.173H58.899Zm-30.95-35.7h1.475v1.476H27.949ZM60.152,65.951H58.678V64.478h1.474Z"/>
  </g>
</svg>
