<svg xmlns="http://www.w3.org/2000/svg" width="74" height="102" viewBox="0 0 74 102">
  <title>wfs</title>
  <g>
    <path d="M46.226,33.052v-2.39H44.222L30.725,14.556V11.174H26.647v4.079h2.966L39.705,27.295a20.96646,20.96646,0,0,0-24.052.764h-3.11v3.742h3.742V29.207a19.884,19.884,0,0,1,12.256-4.032,19.6155,19.6155,0,0,1,13.862,6.009c.027.029.048.06.076.088v3.13h2.445a19.778,19.778,0,0,1-1.52,23.104H40.609V61.25H44.35V58.404a21.08135,21.08135,0,0,0,3.203-21.74L57.371,48.38v3.875H61.45V48.173H58.895Zm-16.803-19.1H27.948V12.476h1.475ZM60.152,50.951H58.678V49.478h1.474Z"/>
    <path d="M73.98,24.443a1.9769,1.9769,0,0,0-.475-1.295L53.837.684c-.004-.006-.01-.008-.017-.014a1.97156,1.97156,0,0,0-.396-.334c-.043-.028-.086-.053-.131-.078a2.10967,2.10967,0,0,0-.396-.165c-.037-.011-.069-.026-.106-.036A2.00142,2.00142,0,0,0,52.333,0H4A4.00531,4.00531,0,0,0,0,4V98a4.00467,4.00467,0,0,0,4,4H70a4.00338,4.00338,0,0,0,4-4V24.667A2.11829,2.11829,0,0,0,73.98,24.443ZM28.435,95.316H23.324l-1.766-8.982c-.403-2.106-.744-4.059-.991-6.443h-.062c-.372,2.354-.712,4.337-1.208,6.443l-1.982,8.982H12.142L7.186,74.439h5.049l1.58,8.58c.465,2.509.898,5.203,1.239,7.31h.062c.34-2.261.836-4.77,1.363-7.372l1.766-8.518h5.018l1.672,8.797c.465,2.446.806,4.677,1.115,7h.062c.31-2.323.774-4.771,1.208-7.279l1.704-8.518h4.801Zm20.6-17.005H41.012v4.771h7.496v3.841H41.012v8.395H36.304V74.439H49.036v3.872Zm8.672,17.315a13.612,13.612,0,0,1-5.916-1.301l.961-3.872a11.93072,11.93072,0,0,0,5.234,1.301c2.168,0,3.314-.898,3.314-2.261,0-1.301-.992-2.045-3.5-2.912-3.469-1.238-5.762-3.159-5.762-6.194,0-3.562,3.004-6.258,7.898-6.258a12.20155,12.20155,0,0,1,5.328,1.054l-1.053,3.778a9.78869,9.78869,0,0,0-4.338-.99c-2.043,0-3.035.96-3.035,2.013,0,1.332,1.146,1.921,3.873,2.942,3.686,1.363,5.389,3.284,5.389,6.227C66.101,92.652,63.437,95.626,57.707,95.626ZM4,67.917V4H50.333V24.466a2.00073,2.00073,0,0,0,2,2H70l.002,41.451Z"/>
  </g>
</svg>
