<svg xmlns="http://www.w3.org/2000/svg" width="74" height="102" viewBox="0 0 74 102">
  <title>wms</title>
  <g>
    <polygon points="51.494 26.276 51.502 26.279 51.502 26.276 51.494 26.276"/>
    <path d="M73.98,24.443a1.98317,1.98317,0,0,0-.476-1.295L53.838.684c-.004-.006-.01-.008-.016-.014a1.99958,1.99958,0,0,0-.396-.334c-.043-.028-.086-.053-.131-.078A2.12884,2.12884,0,0,0,52.9.093c-.037-.011-.07-.026-.109-.036A1.94561,1.94561,0,0,0,52.334,0H4A4.00531,4.00531,0,0,0,0,4V98a4.00467,4.00467,0,0,0,4,4H70a4.00467,4.00467,0,0,0,4-4V24.667A2.11829,2.11829,0,0,0,73.98,24.443ZM4,68V4H50V24.909H48.888v6.573H42.383v6.574h6.505v6.573H42.43v6.574h6.507v6.575H55.51V51.203H49.005V44.629h6.457V38.056H48.956V31.482h6.506V26H70l.002,42ZM9.958,95.104,5.478,76.232h4.564l1.428,7.756c.42,2.269.812,4.704,1.12,6.608h.056c.308-2.044.756-4.312,1.232-6.664l1.596-7.7H20.01l1.512,7.952c.42,2.212.728,4.228,1.008,6.328h.056c.28-2.101.7-4.312,1.092-6.58l1.54-7.7h4.34L24.686,95.104h-4.62l-1.596-8.12c-.364-1.904-.672-3.668-.896-5.824h-.056c-.336,2.128-.644,3.92-1.092,5.824l-1.792,8.12ZM47.729,87.88c-.084-2.269-.168-5.013-.168-7.756h-.055c-.617,2.407-1.4,5.096-2.129,7.308l-2.295,7.364H39.75l-2.018-7.28c-.615-2.24-1.231-4.928-1.708-7.392h-.056c-.084,2.548-.196,5.46-.308,7.812l-.364,7.168H31.35l1.204-18.872h5.685l1.848,6.3c.615,2.185,1.176,4.536,1.596,6.748h.111c.504-2.184,1.148-4.676,1.793-6.775l1.988-6.272h5.6l1.008,18.872H48.038Zm7.869,2.828a10.77875,10.77875,0,0,0,4.73,1.176c1.961,0,2.996-.812,2.996-2.044,0-1.177-.895-1.849-3.164-2.632-3.135-1.12-5.207-2.856-5.207-5.601,0-3.22,2.715-5.656,7.141-5.656a11.0466,11.0466,0,0,1,4.814.952l-.951,3.416a8.8447,8.8447,0,0,0-3.92-.896c-1.848,0-2.744.868-2.744,1.819,0,1.204,1.035,1.736,3.5,2.66,3.332,1.232,4.871,2.968,4.871,5.628,0,3.164-2.406,5.853-7.588,5.853a12.29686,12.29686,0,0,1-5.348-1.177Z"/>
    <polygon points="22.749 44.629 29.207 44.629 29.207 38.056 22.701 38.056 22.701 31.482 29.207 31.482 29.207 24.907 22.701 24.907 22.701 18.333 16.127 18.333 16.127 24.907 22.633 24.907 22.633 31.482 16.127 31.482 16.127 38.056 22.633 38.056 22.633 44.629 16.176 44.629 16.176 51.204 22.682 51.204 22.682 57.778 29.254 57.778 29.254 51.204 22.749 51.204 22.749 44.629"/>
    <polygon points="35.877 44.629 42.335 44.629 42.335 38.056 35.83 38.056 35.83 31.482 42.335 31.482 42.335 24.907 35.83 24.907 35.83 18.333 29.254 18.333 29.254 24.907 35.76 24.907 35.76 31.482 29.254 31.482 29.254 38.056 35.76 38.056 35.76 44.629 29.303 44.629 29.303 51.204 35.809 51.204 35.809 57.778 42.383 57.778 42.383 51.204 35.877 51.204 35.877 44.629"/>
    <rect x="42.383" y="18.333" width="6.573" height="6.574"/>
  </g>
</svg>
