<svg xmlns="http://www.w3.org/2000/svg" width="74" height="102" viewBox="0 0 74 102">
  <title>zip</title>
  <g>
    <path d="M73.98,24.443a1.97264,1.97264,0,0,0-.476-1.295L53.838.684c-.004-.006-.01-.008-.016-.014a1.99976,1.99976,0,0,0-.396-.334c-.043-.028-.086-.053-.131-.078A2.12971,2.12971,0,0,0,52.9.093C52.863.082,52.83.067,52.793.057A1.96234,1.96234,0,0,0,52.334,0H4A4.00529,4.00529,0,0,0,0,4V98a4.00466,4.00466,0,0,0,4,4H70a4.00337,4.00337,0,0,0,4-4V24.667A2.11839,2.11839,0,0,0,73.98,24.443Zm-42.869,72.5H12.25V93.992L23.805,77.363v-.146H13.33V72.683H30.932v3.168L19.629,92.266v.143H31.111Zm8.967,0H34.57V72.683h5.508ZM60.02,85.822c-1.871,1.764-4.643,2.55505-7.883,2.55505A13.80361,13.80361,0,0,1,50.266,88.27v8.676H44.83V73.008a44.76494,44.76494,0,0,1,7.414-.504c3.385,0,5.795.64606,7.416,1.94305a7.093,7.093,0,0,1,2.592,5.615A7.75806,7.75806,0,0,1,60.02,85.822ZM4,67.917V4H27.92V3.371h6.066V4H50.334V24.466a2.0001,2.0001,0,0,0,2,2H70l.002,41.451Z"/>
    <path d="M52.533,76.643a9.26677,9.26677,0,0,0-2.268.217v7.162a8.3528,8.3528,0,0,0,1.836.146c2.914,0,4.715-1.478,4.715-3.959C56.816,77.975,55.268,76.643,52.533,76.643Z"/>
    <rect x="33.98602" y="7.39197" width="6.06598" height="2.50299"/>
    <rect x="27.91998" y="4" width="6.06604" height="1.875"/>
    <rect x="27.91998" y="11.138" width="6.06604" height="2.50299"/>
    <rect x="33.98602" y="15.23596" width="6.06598" height="2.50305"/>
    <rect x="33.98602" y="23.14496" width="6.06598" height="2.50305"/>
    <rect x="27.91998" y="19.125" width="6.06604" height="2.50299"/>
    <path d="M33.986,27.692c-4.295,0-6.338,3.48-6.338,7.776L26.21,48.495a7.774,7.774,0,1,0,15.548,0L40.324,35.468C40.326,31.173,38.281,27.692,33.986,27.692Zm2.577,25.165H31.415V41.982h5.148Z"/>
  </g>
</svg>
