<svg xmlns="http://www.w3.org/2000/svg" width="74" height="102" viewBox="0 0 74 102">
  <title>api-mapping</title>
  <g>
    <path d="M73.979,24.442a1.94777,1.94777,0,0,0-.475-1.295L53.838.682a.112.112,0,0,1-.016-.013,1.97774,1.97774,0,0,0-.398-.334c-.043-.028-.086-.054-.131-.078a2.01093,2.01093,0,0,0-.395-.165c-.037-.011-.07-.027-.107-.035A1.94933,1.94933,0,0,0,52.332,0H4A4.00338,4.00338,0,0,0,0,4V98a4.004,4.004,0,0,0,4,4H70a4.00531,4.00531,0,0,0,4-4V24.666A1.88405,1.88405,0,0,0,73.979,24.442ZM70,67.916H4V4H50.332V24.465a2.00073,2.00073,0,0,0,2,2H70ZM17.262,90.648l-1.761,6.347H9.742l7.52-24.724h7.336l7.703,24.724H26.248l-1.907-6.347Zm6.273-4.18-1.541-5.245c-.44-1.468-.88-3.303-1.247-4.77h-.073c-.367,1.467-.734,3.338-1.137,4.77L18.07,86.468ZM35.569,72.602a45.80717,45.80717,0,0,1,7.557-.514c3.448,0,5.906.66,7.557,1.98a7.12077,7.12077,0,0,1,2.641,5.723A7.70984,7.70984,0,0,1,51.05,85.66c-1.907,1.761-4.732,2.604-8.033,2.604a9.53493,9.53493,0,0,1-1.908-.146v8.877H35.57l-.001-24.393Zm5.539,11.224a8.40758,8.40758,0,0,0,1.871.146c2.972,0,4.806-1.506,4.806-3.998,0-2.274-1.577-3.634-4.402-3.634a9.82339,9.82339,0,0,0-2.274.185l-.001,7.301ZM62.496,72.271V96.995H56.92V72.271Z"/>
    <path d="M37,14.5A21.726,21.726,0,1,0,58.726,36.227,21.72677,21.72677,0,0,0,37,14.5Zm8.164,8.622,1.554-1.038a7.359,7.359,0,0,1-.543-2.494c.379-.183,1.907.62,3.201,1.981-.871,3.239-2.913,2.853-2.913,2.853S44.968,24.387,45.164,23.122ZM32.069,42.253a15.47821,15.47821,0,0,1-1.07,2.431,3.52462,3.52462,0,0,1-1.07,1.457,3.18329,3.18329,0,0,0-.776,1.074l-.098,1.651a7.33239,7.33239,0,0,0,.483,1.852c.292.485-1.042,3.381-1.042,3.381-.846-.167-1.315-1.147-1.609-1.919-.293-.782-.68-1.197-.583-2.07.098-.875-.755-1.337-1.043-1.822a4.062,4.062,0,0,1-.682-1.656c0-.49-1.068-1.169-1.068-1.169a11.20788,11.20788,0,0,1-2.238-1.262,10.048,10.048,0,0,1-.681-2.727,10.719,10.719,0,0,1,.29-2.427s.786-.592.292-1.071a3.50681,3.50681,0,0,1-.58-1.753l-.877-.97a6.06414,6.06414,0,0,1-.779-1.461,2.79626,2.79626,0,0,1,.098-1.267,11.99453,11.99453,0,0,0-.194-1.845c3.634-8.909,9.727-10.99,9.727-10.99l.488,2.038a3.73879,3.73879,0,0,1-1.65.099,3.19108,3.19108,0,0,0-.882-.194l-.774,1.068a9.2595,9.2595,0,0,0-.393,1.072,1.7991,1.7991,0,0,0,.194.969s1.359.099,1.359-.291a.851.851,0,0,0-.191-.582l-.196-.683a6.22893,6.22893,0,0,1,3.208-.295c2.334.197,1.462,1.848,2.437,2.241.973.39-.783,1.749-1.171,2.525-.387.779-.971-.974-.971-.974s.583-.671-.388-.874c-.973-.189-1.617,1.751-1.125,1.657a.915.915,0,0,1,.928,1.01,5.24194,5.24194,0,0,1-.584,1.517,5.61383,5.61383,0,0,1-1.543,1.861s-.497-.301-.209.284c.298.582-.097,1.941-.097,2.333,0,.386-1.167-.682-1.358-1.658-.199-.966-1.337-.123-1.726-.025a1.24773,1.24773,0,0,1-1.287-.65c-.199-.491-1.951.97-2.438,1.261-.484.292-.287,1.072.488.682.777-.39,1.457-.098,1.265.687-.193.773-.969.29-.875.773.096.486.875.973,1.067,1.656.195.678,2.047.098,2.629-.196.582-.295,2.236-.584,2.429.196.202.778,2.045,1.066,2.726,1.259.683.197,2.044.292,2.825,1.072C33.528,40.306,32.17,41.766,32.069,42.253Zm4.376-22.762c-.099.975-1.651,2.237-1.457,2.629.195.392,0,2.056-1.362.595-1.362-1.46-2.727-1.956-2.626-2.931.024-.194,1.409-.498,1.431-.839,2.063-1.918,5.356-1.524,5.609-1.069C37.452,18.841,36.544,18.52,36.445,19.491Zm16.902,6.533c1.315,2.257,3.238,8.275,2.527,9.352-.426-.192-.785-.354-.785-.354H52.493l1.556,1.817a2.36344,2.36344,0,0,0,1.818,1.034c-.703,8.135-7.491,13.358-7.491,13.358a1.63039,1.63039,0,0,1-.518-1.942l.291-1.557.165-2.625s0-2.722-2.595-1.428c-2.788.711-1.625.711-4.441.907-2.82.194-2.354-5.75-2.354-5.75,0-8.902,6.826-2.185,6.826-2.185,3.894,2.591,4.413-2.148,4.413-2.148l2.851-1.031.259-1.3-.414-1.811-4.144-1.709a3.87683,3.87683,0,0,0,.664,3s-.354,1.881-1.226,1.396L45.752,31.84a2.44732,2.44732,0,0,0-2.104.431c-1.299.776-3.497-.036-3.497-.036a2.81211,2.81211,0,0,1,1.542-1.981l1.115-.739a6.2416,6.2416,0,0,1-.037-2.367c.255-1.036.714-.13,1.75-.908,1.037-.775,1.751,1.523,3.306,1.265,1.556-.26.78-.519,1.821-1.037,1.038-.519,1.814,1.037,1.814,1.037l2.07.259A12.73575,12.73575,0,0,1,53.347,26.024Z"/>
  </g>
</svg>
