<svg xmlns="http://www.w3.org/2000/svg" width="74" height="102" viewBox="0 0 74 102">
  <title>api</title>
  <g>
    <path d="M24.489,79.424h-.056c-.28,1.12-.56,2.549-.868,3.641l-1.12,4.004h4.172l-1.176-4.004C25.105,81.943,24.77,80.544,24.489,79.424Z"/>
    <path d="M41.766,79.34a7.59634,7.59634,0,0,0-1.736.141v5.571a6.3891,6.3891,0,0,0,1.429.111c2.269,0,3.668-1.147,3.668-3.052C45.125,80.376,43.922,79.34,41.766,79.34Z"/>
    <path d="M73.98,24.443a1.9789,1.9789,0,0,0-.477-1.295L53.838.684c-.004-.006-.01-.008-.016-.014a1.99958,1.99958,0,0,0-.396-.334c-.043-.028-.086-.053-.131-.078A2.12884,2.12884,0,0,0,52.9.093c-.037-.011-.07-.026-.109-.036A1.94561,1.94561,0,0,0,52.334,0H4A4.00531,4.00531,0,0,0,0,4V98a4.00467,4.00467,0,0,0,4,4H70a4.00467,4.00467,0,0,0,4-4V24.667A2.11829,2.11829,0,0,0,73.98,24.443ZM55.751,26h3.033v8.881h-.106A10.54354,10.54354,0,0,1,48.147,45.413a10.42882,10.42882,0,0,1-5.614-1.638,5.253,5.253,0,0,0-1.194-5.598l-1.35,1.348-2.614-2.614-.002.001a.8761.8761,0,0,0-1.239,1.239l2.614,2.614-2.27,2.27-2.692-2.692-.001.002a.8761.8761,0,0,0-1.239,1.239l2.693,2.693L33.89,45.625a5.25874,5.25874,0,0,0,6.34.843,14.00206,14.00206,0,0,0,18.557-2.439v5.339L38.771,60.469v-6.24a1.771,1.771,0,0,0-3.542,0v6.24l-20.014-11.1V24.184a10.17647,10.17647,0,0,1,5.436,2.833l3.574,3.948a8.90816,8.90816,0,0,0-1.57,2.614,6.792,6.792,0,0,0,.688,5.172l11.798-6.837a6.79781,6.79781,0,0,0-4.146-3.169,9.3328,9.3328,0,0,0-3.684.107l-.27.173-3.989-4.412a13.62013,13.62013,0,0,0-5.454-3.335L36.999,11.96,50,18.206V25.14l-6.139,3.403A1.771,1.771,0,1,0,45.58,31.64ZM28.689,95.104,27.233,90.26H21.83l-1.344,4.844H16.09l5.74-18.871h5.6l5.88,18.871Zm18.928-8.653a8.87443,8.87443,0,0,1-6.131,1.988,7.328,7.328,0,0,1-1.457-.112v6.776H35.8V76.482a34.94352,34.94352,0,0,1,5.77-.392c2.631,0,4.508.505,5.768,1.513a5.433,5.433,0,0,1,2.016,4.367A5.8807,5.8807,0,0,1,47.617,86.451Zm8.737,8.653H52.098V76.23h4.256ZM4,68V4H50V14.278L37.767,8.401a1.77528,1.77528,0,0,0-1.533,0L12.677,19.714a1.7711,1.7711,0,0,0-1.004,1.596V50.412a1.7716,1.7716,0,0,0,.912,1.549L36.141,65.023h.002a2.01973,2.01973,0,0,0,.193.093.34.34,0,0,0,.034.012c.053.021.107.038.163.054a.51866.51866,0,0,0,.053.014,1.56863,1.56863,0,0,0,.155.029.52715.52715,0,0,0,.052.01,1.56047,1.56047,0,0,0,.206.013,1.9795,1.9795,0,0,0,.206-.013.49217.49217,0,0,0,.053-.01c.052-.008.104-.017.153-.029.019-.006.037-.01.055-.014a1.53683,1.53683,0,0,0,.162-.054c.013-.004.022-.009.035-.012a2.12308,2.12308,0,0,0,.193-.093h.002L61.414,51.961a1.77336,1.77336,0,0,0,.913-1.549V26H70l.002,42Z"/>
  </g>
</svg>
