<svg xmlns="http://www.w3.org/2000/svg" width="74" height="102" viewBox="0 0 74 102">
  <title>csv</title>
  <g>
    <path d="M73.979,24.443a1.96316,1.96316,0,0,0-.475-1.295L53.838.683c-.006-.006-.012-.008-.016-.014a2.04579,2.04579,0,0,0-.398-.334c-.043-.027-.086-.053-.131-.078a2.06979,2.06979,0,0,0-.395-.164c-.037-.012-.07-.027-.107-.037A2.00248,2.00248,0,0,0,52.332,0H4A4.004,4.004,0,0,0,0,4V98a4.004,4.004,0,0,0,4,4H70a4.00531,4.00531,0,0,0,4-4V24.667A1.84562,1.84562,0,0,0,73.979,24.443ZM19.537,91.791A13.70769,13.70769,0,0,0,24.107,91l.828,4.283a15.629,15.629,0,0,1-6.227,1.045c-8.387,0-12.707-5.221-12.707-12.131,0-8.279,5.904-12.887,13.246-12.887a14.29939,14.29939,0,0,1,5.977,1.08l-1.117,4.354a11.84931,11.84931,0,0,0-4.607-.897c-4.355,0-7.738,2.627-7.738,8.024C11.762,88.732,14.641,91.791,19.537,91.791Zm14.94,4.537a15.87312,15.87312,0,0,1-6.875-1.477l1.115-4.535a14.00294,14.00294,0,0,0,6.084,1.512c2.52,0,3.852-1.045,3.852-2.629,0-1.512-1.151-2.375-4.067-3.418-4.031-1.404-6.658-3.635-6.658-7.162,0-4.141,3.455-7.309,9.178-7.309a14.83941,14.83941,0,0,1,6.191,1.225l-1.223,4.428a11.52418,11.52418,0,0,0-5.076-1.152c-2.375,0-3.527,1.08-3.527,2.34,0,1.55,1.367,2.232,4.5,3.42,4.282,1.584,6.299,3.814,6.299,7.234C44.268,92.871,41.137,96.328,34.477,96.328Zm25.63-.362H53.701l-7.775-24.26h6.012l2.951,10.26c.828,2.88,1.584,5.65,2.16,8.675h.107c.611-2.916,1.367-5.795,2.195-8.566l3.096-10.367h5.832ZM4,67.917V4H50.332V24.467a2.00073,2.00073,0,0,0,2,2H70V67.918L4,67.917Z"/>
    <path d="M55.85,31.492H18.885V53.568H55.872V36.404H55.85ZM31.135,53.143H19.313V48.157H31.135Zm0-5.413H19.313V42.744H31.135Zm0-5.414H19.313V37.332H31.135Zm.215-5.412V31.92H43.172v4.984H31.35ZM55.371,53.068H50.703V38.791H47.498V53.068h-2.67V41.748H41.623v11.32H39.271v-8.4H36.065v8.4H31.561V37.332h23.81Zm.051-16.664h-.051v.5H43.6V31.92H55.422Z"/>
  </g>
</svg>
