<svg xmlns="http://www.w3.org/2000/svg" width="74" height="102" viewBox="0 0 74 102">
  <title>csw</title>
  <path d="M73.5,23.1,53.8.7c-.1-.1-.3-.2-.399-.3L53.3.3c-.1-.1-.3-.1-.4-.2h-.1a.90151.90151,0,0,0-.5-.1H4A4.01176,4.01176,0,0,0,0,4V98a4.01176,4.01176,0,0,0,4,4H70a4.01176,4.01176,0,0,0,4-4V24.4A1.65586,1.65586,0,0,0,73.5,23.1ZM55.8,35.4,55,35H52.4L54,36.8s.8,1.1,1.8,1c-.7,8.1-7.5,13.4-7.5,13.4a1.613,1.613,0,0,1-.5-1.9l.3-1.6.2-2.6s0-2.7-2.6-1.4c-2.8.7-1.601.7-4.4.9-2.8.2-2.399-5.8-2.399-5.8,0-8.9,6.8-2.2,6.8-2.2C49.6,39.2,50.1,34.5,50.1,34.5l2.9-1,.3-1.3-.4-1.8-4.1-1.7a3.82546,3.82546,0,0,0,.7,3s-.4,1.9-1.2,1.4l-2.4-1.2a2.72884,2.72884,0,0,0-2.101.4c-1.3.8-3.5,0-3.5,0a2.97617,2.97617,0,0,1,1.5-2l1.101-.7a5.69641,5.69641,0,0,1,0-2.4c.3-1,.699-.1,1.8-.9,1-.8,1.8,1.5,3.3,1.3,1.6-.3.8-.5,1.8-1s1.8,1,1.8,1l2.101.3a4.46933,4.46933,0,0,1-.342-1.4h.204C54.838,29.068,56.454,34.372,55.8,35.4ZM46.3,19.6c.4-.2,1.9.6,3.2,2-.9,3.2-2.9,2.9-2.9,2.9s-1.6-.1-1.4-1.4l1.6-1A5.9155,5.9155,0,0,1,46.3,19.6ZM17.9,92.5a13.98769,13.98769,0,0,0,4.4-.7l.7,4.1a15.88132,15.88132,0,0,1-5.8,1c-7.9,0-12-5-12-11.5,0-7.8,5.6-12.1,12.5-12.1a12.84885,12.84885,0,0,1,5.6,1l-1.1,4.1a11.903,11.903,0,0,0-4.4-.801c-4.1,0-7.3,2.5-7.3,7.601C10.6,89.6,13.3,92.5,17.9,92.5Zm12.4,4.3a15.3373,15.3373,0,0,1-6.5-1.399l1.1-4.2A13.27543,13.27543,0,0,0,30.6,92.6c2.4,0,3.6-1,3.6-2.5,0-1.399-1.1-2.199-3.8-3.199-3.8-1.4-6.3-3.5-6.3-6.801,0-3.899,3.3-6.899,8.7-6.899a12.25587,12.25587,0,0,1,5.8,1.2l-1.2,4.1a11.2125,11.2125,0,0,0-4.8-1.1c-2.2,0-3.3,1.1-3.3,2.199,0,1.5,1.3,2.101,4.2,3.2,4,1.5,5.9,3.601,5.9,6.8C39.5,93.5,36.6,96.8,30.3,96.8ZM63,96.4H57.4l-1.9-9.9c-.4-2.3-.8-4.5-1.1-7.1h-.1c-.4,2.6-.8,4.8-1.3,7.1l-2.2,9.9H45.1L39.7,73.5h5.5l1.7,9.4c.5,2.8,1,5.699,1.399,8H48.4q.5985-3.75,1.5-8.101l1.899-9.3h5.5l1.8,9.7c.5,2.7.9,5.1,1.2,7.7H60.4c.3-2.5.8-5.2,1.3-8L63.6,73.6h5.3Zm7-28.5H4V4H50.3V19.057A21.76485,21.76485,0,1,0,58.7,36.3a21.855,21.855,0,0,0-2.302-9.8H70ZM33.5,22.7c-1.4-1.5-2.7-2-2.6-2.9,0-.2,1.4-.5,1.4-.8,2.1-1.9,5.4-1.5,5.6-1.1-.4.9-1.4.6-1.5,1.6s-1.7,2.2-1.5,2.6S34.9,24.2,33.5,22.7Zm-4,28.2c.3.5-1,3.4-1,3.4-.8-.2-1.3-1.1-1.6-1.899-.3-.8-.7-1.2-.6-2.101.1-.9-.8-1.3-1-1.8a4.10491,4.10491,0,0,1-.7-1.7c0-.5-1.1-1.2-1.1-1.2a11.18041,11.18041,0,0,1-2.2-1.3,9.65531,9.65531,0,0,1-.7-2.7,10.05007,10.05007,0,0,1,.3-2.4s.8-.6.3-1.1a3.62462,3.62462,0,0,1-.6-1.8l-.9-1a6.27693,6.27693,0,0,1-.8-1.5,2.87889,2.87889,0,0,1,.1-1.3,9.908,9.908,0,0,0-.2-1.8c3.6-8.9,9.7-11,9.7-11l.5,2a3.56738,3.56738,0,0,1-1.6.1,3.23424,3.23424,0,0,0-.9-.2l-.8,1.1a9.96148,9.96148,0,0,0-.4,1.1,1.85493,1.85493,0,0,0,.2,1s1.4.1,1.4-.3a.876.876,0,0,0-.2-.6l-.2-.7a6.12071,6.12071,0,0,1,3.2-.3c2.3.2,1.5,1.8,2.4,2.2,1,.4-.8,1.7-1.2,2.5s-1-1-1-1,.6-.7-.4-.9-1.6,1.8-1.1,1.7a.87062.87062,0,0,1,.9,1,5.26244,5.26244,0,0,1-.6,1.5,5.93311,5.93311,0,0,1-1.5,1.9s-.5-.3-.2.3-.1,1.9-.1,2.3-1.2-.7-1.4-1.7-1.3-.1-1.7,0a1.37124,1.37124,0,0,1-1.3-.6c-.2-.5-2,1-2.4,1.3-.5.3-.3,1.1.5.7s1.5-.1,1.3.7-1,.3-.9.8.9,1,1.1,1.7,2,.1,2.6-.2,2.2-.6,2.4.2,2,1.1,2.7,1.3a5.84429,5.84429,0,0,1,2.8,1.1c.9.6-.4,2.1-.5,2.6A12.21034,12.21034,0,0,1,31,44.7a4.49406,4.49406,0,0,1-1.1,1.5,3.2638,3.2638,0,0,0-.8,1.1L29,49A7.57231,7.57231,0,0,0,29.5,50.9Z"/>
</svg>
