<svg xmlns="http://www.w3.org/2000/svg" width="74" height="102" viewBox="0 0 74 102">
  <title>geopackage</title>
  <g>
    <path d="M37.951,76.813a8.65776,8.65776,0,0,0-2.102.201v6.638a7.63646,7.63646,0,0,0,1.701.135c2.702,0,4.372-1.369,4.372-3.67C41.921,78.049,40.486,76.813,37.951,76.813Z"/>
    <path d="M73.981,24.443a1.96745,1.96745,0,0,0-.476-1.295L53.837.684c-.004-.006-.01-.008-.016-.014a1.99958,1.99958,0,0,0-.396-.334c-.043-.028-.086-.053-.131-.078A2.11978,2.11978,0,0,0,52.9.093c-.037-.011-.07-.026-.107-.036A2.01863,2.01863,0,0,0,52.333,0H4A4.00531,4.00531,0,0,0,0,4V98a4.004,4.004,0,0,0,4,4H70a4.00274,4.00274,0,0,0,4-4V24.667C74,24.592,73.988,24.518,73.981,24.443ZM26.845,94.596a25.154,25.154,0,0,1-7.506,1.268c-4.104,0-7.072-1.032-9.141-3.036a10.87577,10.87577,0,0,1-3.17-8.172c.034-7.475,5.472-11.744,12.845-11.744a15.46436,15.46436,0,0,1,6.238,1.1l-1.067,4.072a12.4363,12.4363,0,0,0-5.238-.97c-4.237,0-7.439,2.402-7.439,7.274,0,4.637,2.902,7.372,7.073,7.372a6.83857,6.83857,0,0,0,2.502-.333V86.723H18.471V82.751h8.375l-.001,11.845ZM44.89,85.32c-1.734,1.637-4.303,2.369-7.306,2.369a12.73851,12.73851,0,0,1-1.734-.1V95.63H30.812V73.444a41.61624,41.61624,0,0,1,6.873-.467c3.136,0,5.371.601,6.872,1.802a6.57152,6.57152,0,0,1,2.401,5.204A7.17858,7.17858,0,0,1,44.89,85.32ZM61.102,95.63l-2.035-4.069c-.834-1.567-1.368-2.735-2.001-4.037H57c-.468,1.302-1.035,2.47-1.735,4.037L53.398,95.63H47.592l6.505-11.377L47.826,73.145h5.839l1.967,4.104c.668,1.367,1.168,2.469,1.703,3.735H57.4c.534-1.435.968-2.437,1.535-3.735l1.901-4.104h5.805L60.3,84.123l6.673,11.51H61.102ZM4,67.917V4H50.333V24.466a2.00073,2.00073,0,0,0,2,2H70l.002,41.451Z"/>
    <path d="M56.964,45.471l-.959-3.632a37.71279,37.71279,0,0,0-9.262,3.632Z"/>
    <path d="M57.405,47.136H43.975A51.09818,51.09818,0,0,0,31.338,59.067H60.557Z"/>
    <path d="M35.939,31.762c-.485-1.312-1.017-2.748-1.542-4.181H17.728L15.74,35.11H31.967A6.54224,6.54224,0,0,1,35.939,31.762Z"/>
    <path d="M39.63,47.136H12.564L9.413,59.067H28.159A49.00808,49.00808,0,0,1,39.63,47.136Z"/>
    <path d="M55.539,40.072,52.241,27.581H45.112c-.581,1.387-1.182,2.806-1.771,4.19,2.545.914,4.295,2.724,4.295,4.831,0,3.021-3.584,5.475-8.004,5.475-3.826,0-7.019-1.844-7.808-4.296H15.034L13.001,45.47H42.106A40.09788,40.09788,0,0,1,55.539,40.072Z"/>
    <path d="M38.49,33.52c-1.909.332-3.322,1.458-3.322,2.805,0,1.608,1.999,2.908,4.462,2.908,2.466,0,4.463-1.3,4.463-2.908,0-1.354-1.426-2.483-3.348-2.808,1.771-4.121,4.93-11.524,5.563-13.402a6.77818,6.77818,0,1,0-12.792-.281C33.864,21.062,36.861,29.149,38.49,33.52Zm3.855,2.805c0,.977-1.215,1.77-2.715,1.77-1.498,0-2.713-.793-2.713-1.77,0-.813.842-1.49,1.984-1.697.386,1.029.634,1.697.634,1.697s.293-.674.742-1.717C41.462,34.8,42.345,35.492,42.345,36.325ZM39.962,13.439a4.325,4.325,0,1,1-4.326,4.328A4.326,4.326,0,0,1,39.962,13.439Z"/>
  </g>
</svg>
