<svg xmlns="http://www.w3.org/2000/svg" width="74" height="102" viewBox="0 0 74 102">
  <title>jpg</title>
  <g>
    <path d="M73.98,24.443a1.97466,1.97466,0,0,0-.478-1.295L53.838.684c-.006-.006-.012-.008-.016-.014a2.01119,2.01119,0,0,0-.398-.334c-.043-.028-.086-.053-.131-.078a2.02094,2.02094,0,0,0-.395-.165c-.037-.011-.07-.026-.107-.036A1.94932,1.94932,0,0,0,52.332,0H4A4.00531,4.00531,0,0,0,0,4V98a4.00467,4.00467,0,0,0,4,4H70a4.00467,4.00467,0,0,0,4-4V24.667A2.11829,2.11829,0,0,0,73.98,24.443ZM19.939,87.65c0,6.91-3.313,9.322-8.639,9.322a14.28735,14.28735,0,0,1-3.996-.576l.613-4.428a9.01442,9.01442,0,0,0,2.807.434c2.305,0,3.744-1.045,3.744-4.824V72.316h5.471Zm19.764-2.195c-1.873,1.764-4.645,2.555-7.883,2.555a13.83927,13.83927,0,0,1-1.873-.107v8.676H24.511V72.641a44.81218,44.81218,0,0,1,7.416-.504c3.383,0,5.796.647,7.416,1.943a7.09073,7.09073,0,0,1,2.591,5.615A7.75515,7.75515,0,0,1,39.703,85.455Zm25.99,10.006a27.149,27.149,0,0,1-8.101,1.368c-4.426,0-7.631-1.116-9.86-3.274a11.73831,11.73831,0,0,1-3.42-8.82c.035-8.062,5.901-12.67,13.856-12.67a16.67353,16.67353,0,0,1,6.731,1.188l-1.151,4.392a13.44165,13.44165,0,0,0-5.651-1.043c-4.57,0-8.025,2.592-8.025,7.848,0,5.003,3.131,7.955,7.631,7.955a7.35349,7.35349,0,0,0,2.699-.361V86.97H56.658V82.687h9.035ZM70,67.917H61.511c-2.586-6.619-5.755-15.82-10.571-14.588-5.413,1.385-8.232,13.523-8.47,14.588h-.035c-.232-1.142-3.209-15.168-10.872-22.834C23.814,37.332,16.294,66.181,15.85,67.917H4V4H50.332V24.466a2.00073,2.00073,0,0,0,2,2H70Z"/>
    <path d="M32.215,76.275a9.24135,9.24135,0,0,0-2.268.217v7.162a8.45091,8.45091,0,0,0,1.836.145c2.916,0,4.717-1.477,4.717-3.959C36.5,77.607,34.951,76.275,32.215,76.275Z"/>
    <ellipse cx="15.831" cy="33.009" rx="4.957" ry="4.952"/>
    <path d="M48.746,34.997a2.13936,2.13936,0,0,0-1.489-.611h-.858a2.11659,2.11659,0,0,0-2.096,1.898c-2.658.276-4.625,1.235-4.625,2.384-.001,1.369,2.771,2.477,6.191,2.477a14.05734,14.05734,0,0,0,2.768-.271,8.7522,8.7522,0,0,0,3.428.665c3.272,0,5.929-1.602,5.929-3.576,0-1.976-2.655-3.577-5.929-3.577A8.8772,8.8772,0,0,0,48.746,34.997Z"/>
  </g>
</svg>
