<svg xmlns="http://www.w3.org/2000/svg" width="74" height="102" viewBox="0 0 74 102">
  <title>json</title>
  <g>
    <path d="M73.98,24.444a1.9769,1.9769,0,0,0-.475-1.295L53.837.684c-.004-.006-.01-.008-.017-.014a1.97156,1.97156,0,0,0-.396-.334c-.043-.028-.086-.053-.131-.078a2.10967,2.10967,0,0,0-.396-.165c-.037-.011-.069-.026-.106-.036A2.00142,2.00142,0,0,0,52.333,0H4A4.00531,4.00531,0,0,0,0,4V98a4.00467,4.00467,0,0,0,4,4H70a4.00338,4.00338,0,0,0,4-4V24.667A2.07644,2.07644,0,0,0,73.98,24.444ZM58.333,35.871c0,12.767-11.007,21.343-21.287,21.343-.137,0-13.623-.495-13.623-18.198,0-8.714,5.413-13.416,10.507-13.416.094,0,.188.001.282.005a12.5582,12.5582,0,0,0-4.784,10.337c0,9,7.141,11.783,7.171,11.793a8.2629,8.2629,0,0,0,3.263.648c6.207,0,12.852-6.242,12.852-15.535a28.29116,28.29116,0,0,0-.709-6.416,1.98427,1.98427,0,0,0,.33.033h3.823A20.65477,20.65477,0,0,1,58.333,35.871ZM47.474,17.518a23.51807,23.51807,0,0,1,2.859,1.923v2.237A17.74058,17.74058,0,0,0,47.474,17.518Zm3.238,15.33c0,8.097-5.61,13.535-10.852,13.535-.083,0-.163-.009-.245-.012a12.46461,12.46461,0,0,0,4.886-10.383c0-9.046-7.146-11.785-7.219-11.812l-.005.014-.001-.03a10.23756,10.23756,0,0,0-3.348-.56c-6.063,0-12.507,5.403-12.507,15.416,0,7.584,2.307,12.315,5.146,15.274A20.72479,20.72479,0,0,1,15.666,35.918c0-12.767,11.007-21.343,21.287-21.343V13.248l.092,1.327c.441,0,.89.017,1.341.051C42.982,15.346,50.712,19.982,50.712,32.848ZM36.953,45.701c-1.323-.657-5.525-3.254-5.525-9.759a10.46388,10.46388,0,0,1,5.516-9.729c1.288.63,5.559,3.214,5.559,9.776A10.40755,10.40755,0,0,1,36.953,45.701ZM14.974,86.996c0,5.104-2.445,6.884-6.353,6.884a10.58583,10.58583,0,0,1-2.977-.425l.452-3.27a6.63532,6.63532,0,0,0,2.073.319c1.701,0,2.765-.771,2.765-3.535V75.673h4.04Zm7.763,6.858a11.68776,11.68776,0,0,1-5.077-1.116l.824-3.322a10.24178,10.24178,0,0,0,4.492,1.116c1.861,0,2.844-.771,2.844-1.94,0-1.116-.851-1.755-3.004-2.499-2.977-1.062-4.944-2.711-4.944-5.315,0-3.058,2.578-5.37,6.778-5.37a10.48481,10.48481,0,0,1,4.572.904l-.904,3.242a8.3895,8.3895,0,0,0-3.721-.85c-1.754,0-2.605.823-2.605,1.728,0,1.143.983,1.647,3.322,2.524,3.164,1.17,4.625,2.818,4.625,5.343C29.94,91.302,27.654,93.854,22.737,93.854Zm17.572.026c-5.29,0-8.427-4.014-8.427-9.144,0-5.369,3.456-9.383,8.719-9.383,5.502,0,8.506,4.12,8.506,9.091C49.107,90.345,45.572,93.88,40.309,93.88ZM66.6,93.588H62.347l-3.828-6.911a60.76607,60.76607,0,0,1-3.109-6.326h-.106c.133,2.393.186,4.918.186,7.842v5.396H51.769V75.673H56.5l3.721,6.565a56.25464,56.25464,0,0,1,2.924,6.14h.054a73.97279,73.97279,0,0,1-.319-7.496V75.673H66.6ZM4,67.917V4H50.333V16.913a24.036,24.036,0,0,0-11.72-4.274,6.509,6.509,0,0,0-1.66-.057v-.005c-11.246,0-23.287,9.38-23.287,23.343,0,14.389,12.088,23.295,23.287,23.295V59.21c.05.002.086.004.092.004,11.246,0,23.287-9.38,23.287-23.343a22.76379,22.76379,0,0,0-1.987-9.405H70l.002,41.451Z"/>
    <path d="M40.521,78.569c-2.764,0-4.359,2.605-4.359,6.087,0,3.536,1.648,6.008,4.359,6.008,2.738,0,4.307-2.605,4.307-6.087C44.828,81.334,43.312,78.569,40.521,78.569Z"/>
  </g>
</svg>
