<svg xmlns="http://www.w3.org/2000/svg" width="74" height="102" viewBox="0 0 74 102">
  <title>odt</title>
  <g>
    <path d="M37.959,76.818a10.79794,10.79794,0,0,0-2.321.201V91.851a9.33581,9.33581,0,0,0,1.782.102c4.643.033,7.668-2.523,7.668-7.938C45.122,79.307,42.363,76.818,37.959,76.818Z"/>
    <path d="M16.229,76.75c-3.464,0-5.482,3.299-5.482,7.703,0,4.439,2.085,7.566,5.516,7.566,3.464,0,5.448-3.297,5.448-7.701C21.711,80.248,19.761,76.75,16.229,76.75Z"/>
    <path d="M73.98,24.443a1.97075,1.97075,0,0,0-.476-1.295L53.838.684c-.004-.006-.012-.008-.016-.014a1.96639,1.96639,0,0,0-.396-.334c-.043-.029-.088-.053-.133-.078a2.02423,2.02423,0,0,0-.395-.166c-.035-.01-.07-.025-.107-.035A1.98588,1.98588,0,0,0,52.334,0H4A4.00531,4.00531,0,0,0,0,4V98a4.00531,4.00531,0,0,0,4,4H70a4.00531,4.00531,0,0,0,4-4V24.666A2.12338,2.12338,0,0,0,73.98,24.443ZM15.994,96.088c-6.727,0-10.662-5.076-10.662-11.535,0-6.795,4.339-11.873,11.031-11.873,6.963,0,10.763,5.215,10.763,11.471C27.126,91.582,22.619,96.088,15.994,96.088ZM46.77,93.027c-2.387,1.986-6.02,2.928-10.458,2.928a43.99984,43.99984,0,0,1-5.818-.338V73.354a45.57277,45.57277,0,0,1,6.928-.472c4.306,0,7.097.773,9.283,2.423,2.354,1.748,3.834,4.539,3.834,8.543C50.537,88.186,48.956,91.18,46.77,93.027ZM68.667,77.355H62.479V95.72H57.334V77.355H51.246V73.05H68.667Zm1.285-9.439H4V4H50.334V24.465a1.99945,1.99945,0,0,0,2,2H70Z"/>
    <path d="M12.1,18.168H40.363a2,2,0,0,0,0-4H12.1a2,2,0,0,0,0,4Z"/>
    <path d="M12.1,31.334H40.363a2,2,0,0,0,0-4H12.1a2,2,0,0,0,0,4Z"/>
    <path d="M10.1,42.49a2.00009,2.00009,0,0,0,2,2H58.334a2,2,0,0,0,0-4H12.1A1.99881,1.99881,0,0,0,10.1,42.49Z"/>
    <path d="M58.334,53.668H12.1a2,2,0,0,0,0,4H58.334a2,2,0,0,0,0-4Z"/>
  </g>
</svg>
