<svg xmlns="http://www.w3.org/2000/svg" width="74" height="102" viewBox="0 0 74 102">
  <title>pdf</title>
  <g>
    <path d="M35.508,76.796a11.40183,11.40183,0,0,0-2.484.216V92.886a10.10674,10.10674,0,0,0,1.908.108c4.966.035,8.207-2.699,8.207-8.495C43.174,79.459,40.223,76.796,35.508,76.796Z"/>
    <path d="M14.303,76.725a9.376,9.376,0,0,0-2.268.215v7.164a8.44245,8.44245,0,0,0,1.834.145c2.918,0,4.717-1.477,4.717-3.96C18.586,78.057,17.037,76.725,14.303,76.725Z"/>
    <path d="M73.98,24.443a1.97266,1.97266,0,0,0-.476-1.295L53.838.684c-.004-.006-.012-.008-.016-.014a1.99958,1.99958,0,0,0-.396-.334c-.043-.028-.088-.053-.133-.078a2.02094,2.02094,0,0,0-.395-.165c-.035-.011-.07-.026-.107-.036A1.94567,1.94567,0,0,0,52.334,0H4A4.00531,4.00531,0,0,0,0,4V98a4.00467,4.00467,0,0,0,4,4H70a4.00467,4.00467,0,0,0,4-4V24.667A2.11829,2.11829,0,0,0,73.98,24.443ZM21.789,85.902c-1.871,1.764-4.643,2.557-7.883,2.557a14.14161,14.14161,0,0,1-1.871-.107v8.674H6.6V73.088a45.01707,45.01707,0,0,1,7.416-.504c3.383,0,5.795.648,7.414,1.943a7.08991,7.08991,0,0,1,2.59,5.615A7.745,7.745,0,0,1,21.789,85.902Zm23.147,8.244c-2.553,2.123-6.44,3.131-11.19,3.131a47.77672,47.77672,0,0,1-6.229-.359V73.088a49.2496,49.2496,0,0,1,7.416-.504c4.605,0,7.593.828,9.934,2.592,2.521,1.872,4.104,4.859,4.104,9.143C48.969,88.963,47.277,92.166,44.936,94.146ZM67.402,77.264H58.078v5.543h8.711v4.465H58.078v9.754H52.572V72.766h14.83ZM4,67.917V4H50.334V24.466a2.00009,2.00009,0,0,0,2,2H70l.002,41.451Z"/>
    <path d="M57.52,42.988c-.117-.011-2.936-.268-7.262-.268-1.355,0-2.721.026-4.068.077A215.64216,215.64216,0,0,1,26.903,26.374c.068-.396.115-.709.137-.949.494-5.216-.055-8.737-1.627-10.466a3.9682,3.9682,0,0,0-4.117-1.075,4.9183,4.9183,0,0,0-3.371,3.139c-.641,2.136.389,4.729,3.094,7.736.043.045.961,1.007,2.629,2.637-1.084,5.169-3.922,16.324-5.299,21.68a28.14937,28.14937,0,0,0-8.014,6.197l-.137.156-.088.188c-.215.451-1.242,2.794-.471,4.676a3.18956,3.18956,0,0,0,1.908,1.809l.24.064a3.1203,3.1203,0,0,0,.598.047c1.668,0,5.787-.877,7.996-9.018l.535-2.062c7.711-3.748,17.35-4.957,24.336-5.294,3.594,2.665,7.17,5.113,10.635,7.281l.113.066a8.34861,8.34861,0,0,0,3.467.838h0c2.543,0,4.4-1.561,5.092-4.28l.035-.186a5.10561,5.10561,0,0,0-1.129-4.05C61.502,43.2,57.848,42.999,57.52,42.988ZM12.447,59.212a.18369.18369,0,0,1-.031-.056,3.65167,3.65167,0,0,1,.326-2.078,23.56274,23.56274,0,0,1,4.51-3.859C15.555,58.711,13.088,59.186,12.447,59.212ZM23.219,22.721h0c-2.605-2.9-2.566-4.338-2.426-4.822.23-.809,1.268-1.115,1.277-1.118.523-.142.84-.114,1.123.196.639.702,1.188,2.821.971,6.707C23.549,23.066,23.219,22.721,23.219,22.721ZM21.873,47.42l.045-.172-.006.002c1.305-5.11,3.186-12.592,4.268-17.398l.039.037.004-.023c3.5,3.296,8.867,8.117,15.292,13.131L41.443,43l.106.08A67.98291,67.98291,0,0,0,21.873,47.42Zm39.754,1.676c-.461,1.694-1.348,1.926-2.16,1.926h0a5.40372,5.40372,0,0,1-2.059-.488c-2.359-1.479-4.773-3.09-7.209-4.814h.059c4.176,0,6.957.253,7.066.261.697.026,2.904.352,3.855,1.47A2.06093,2.06093,0,0,1,61.627,49.096Z"/>
  </g>
</svg>
