<svg xmlns="http://www.w3.org/2000/svg" width="74" height="102" viewBox="0 0 74 102">
  <title>png</title>
  <g>
    <path d="M14.139,76.686a8.77475,8.77475,0,0,0-2.137.205v6.758a7.83318,7.83318,0,0,0,1.732.136c2.75,0,4.449-1.394,4.449-3.735C18.184,77.941,16.723,76.686,14.139,76.686Z"/>
    <polygon points="51.494 26.276 51.502 26.279 51.502 26.276 51.494 26.276"/>
    <path d="M73.98,24.443a1.98317,1.98317,0,0,0-.476-1.295L53.838.684c-.004-.006-.01-.008-.016-.014a1.99958,1.99958,0,0,0-.396-.334c-.043-.028-.086-.053-.131-.078A2.12884,2.12884,0,0,0,52.9.093c-.037-.011-.07-.026-.109-.036A1.94561,1.94561,0,0,0,52.334,0H4A4.00531,4.00531,0,0,0,0,4V98a4.00467,4.00467,0,0,0,4,4H70a4.00467,4.00467,0,0,0,4-4V24.667A2.11829,2.11829,0,0,0,73.98,24.443ZM21.205,85.346c-1.766,1.664-4.381,2.412-7.438,2.412a12.79267,12.79267,0,0,1-1.766-.104V95.84H6.872V73.256a42.413,42.413,0,0,1,6.996-.477c3.191,0,5.469.611,6.996,1.835a6.69249,6.69249,0,0,1,2.445,5.298A7.30457,7.30457,0,0,1,21.205,85.346ZM45.559,95.84H40.125l-4.891-8.83a84.81525,84.81525,0,0,1-3.977-8.082l-.1.033c.137,3.023.203,6.249.203,9.984V95.84H26.606V72.95h6.045l4.756,8.388a66.2854,66.2854,0,0,1,3.733,7.846h.103a84.615,84.615,0,0,1-.441-9.543V72.952h4.757V95.84Zm23.605-1.053a25.629,25.629,0,0,1-7.643,1.291c-4.176,0-7.201-1.053-9.306-3.092a11.07825,11.07825,0,0,1-3.228-8.319c.033-7.606,5.57-11.954,13.074-11.954a15.77023,15.77023,0,0,1,6.353,1.12l-1.086,4.144a12.70766,12.70766,0,0,0-5.334-.984c-4.312,0-7.572,2.445-7.572,7.402,0,4.722,2.955,7.506,7.201,7.506a6.902,6.902,0,0,0,2.547-.34V86.772H60.638V82.73h8.524l.002,12.057ZM4,67.917V4H50.334V18.387h1.25v7.889h7.807v.19H70l.002,41.451Z"/>
    <polygon points="20.135 49.942 27.885 49.942 27.885 42.054 20.078 42.054 20.078 34.165 27.885 34.165 27.885 26.276 20.078 26.276 20.078 18.387 12.189 18.387 12.189 26.276 19.996 26.276 19.996 34.165 12.189 34.165 12.189 42.054 19.996 42.054 19.996 49.942 12.248 49.942 12.248 57.832 20.055 57.832 20.055 65.721 27.941 65.721 27.941 57.832 20.135 57.832 20.135 49.942"/>
    <polygon points="35.889 49.942 43.639 49.942 43.639 42.054 35.832 42.054 35.832 34.165 43.639 34.165 43.639 26.276 35.832 26.276 35.832 18.387 27.941 18.387 27.941 26.276 35.748 26.276 35.748 34.165 27.941 34.165 27.941 42.054 35.748 42.054 35.748 49.942 28 49.942 28 57.832 35.807 57.832 35.807 65.721 43.695 65.721 43.695 57.832 35.889 57.832 35.889 49.942"/>
    <path d="M43.695,26.276h7.799a1.995,1.995,0,0,1-1.16-1.81V18.387H43.695Z"/>
    <path d="M51.502,26.279v7.886H43.695v7.889h7.807v7.888h-7.75v7.889h7.809v7.89h7.888v-7.89H51.643V49.942h7.748V42.054H51.584V34.165h7.807V26.466H52.334A1.97729,1.97729,0,0,1,51.502,26.279Z"/>
  </g>
</svg>
