<svg xmlns="http://www.w3.org/2000/svg" width="74" height="102" viewBox="0 0 74 102">
  <title>rdf</title>
  <g>
    <path d="M17.733,77.815a9.3806,9.3806,0,0,0-2.137.155V83.7h1.858c2.354,0,3.748-1.177,3.748-3.004C21.202,78.807,19.901,77.815,17.733,77.815Z"/>
    <path d="M73.98,24.443a1.9769,1.9769,0,0,0-.475-1.295L53.837.684c-.004-.006-.01-.008-.017-.014a1.97156,1.97156,0,0,0-.396-.334c-.043-.028-.086-.053-.131-.078a2.10967,2.10967,0,0,0-.396-.165c-.037-.011-.069-.026-.106-.036A2.00142,2.00142,0,0,0,52.333,0H4A4.00531,4.00531,0,0,0,0,4V98a4.00467,4.00467,0,0,0,4,4H70a4.00338,4.00338,0,0,0,4-4V24.667A2.11829,2.11829,0,0,0,73.98,24.443ZM21.853,95.316a27.96577,27.96577,0,0,1-1.425-4.863c-.588-2.633-1.487-3.314-3.438-3.345H15.596v8.208H10.919V74.718a41.13955,41.13955,0,0,1,6.288-.434c3.097,0,5.266.465,6.752,1.642a5.29649,5.29649,0,0,1,1.952,4.398,5.53081,5.53081,0,0,1-3.686,5.111v.093c1.456.589,2.261,1.951,2.788,3.872.65,2.385,1.27,5.11,1.673,5.916ZM44.31,92.838c-2.199,1.828-5.576,2.695-9.665,2.695a40.473,40.473,0,0,1-5.359-.31V74.749a41.62056,41.62056,0,0,1,6.35-.465c3.996,0,6.597.743,8.58,2.23,2.168,1.61,3.531,4.182,3.531,7.867C47.748,88.378,46.292,91.135,44.31,92.838ZM63.609,78.311H55.586v4.771h7.496v3.841H55.586v8.395H50.877V74.439H63.609ZM4,67.917V4H50.333V14.377a6.87172,6.87172,0,0,0-4.953,6.596,6.72939,6.72939,0,0,0,.061.868L24.222,32.535A6.87163,6.87163,0,1,0,24.17,43L45.407,53.957c-.014.185-.027.369-.027.557a6.873,6.873,0,1,0,8.396-6.698V27.671a6.81352,6.81352,0,0,0,2.562-1.206H70l.002,41.451H4Zm22.503-31.4,21-10.583a6.856,6.856,0,0,0,1.691,1.188V48.365a6.90952,6.90952,0,0,0-1.908,1.404L26.492,39.042a6.67731,6.67731,0,0,0,.011-2.525Z"/>
    <path d="M36.132,77.908a10.04548,10.04548,0,0,0-2.137.186v13.66a8.75231,8.75231,0,0,0,1.642.094c4.306.03,7.125-2.323,7.125-7.311C42.761,80.2,40.22,77.908,36.132,77.908Z"/>
  </g>
</svg>
