<svg xmlns="http://www.w3.org/2000/svg" width="74" height="102" viewBox="0 0 74 102">
  <title>rester-generic</title>
  <g>
    <polygon points="51.494 26.276 51.502 26.279 51.502 26.276 51.494 26.276"/>
    <path d="M73.98,24.443a1.98317,1.98317,0,0,0-.476-1.295L53.838.684c-.004-.006-.01-.008-.016-.014a1.99958,1.99958,0,0,0-.396-.334c-.043-.028-.086-.053-.131-.078A2.12884,2.12884,0,0,0,52.9.093c-.037-.011-.07-.026-.109-.036A1.94561,1.94561,0,0,0,52.334,0H4A4.00531,4.00531,0,0,0,0,4V98a4.00467,4.00467,0,0,0,4,4H70a4.00467,4.00467,0,0,0,4-4V24.667A2.11829,2.11829,0,0,0,73.98,24.443ZM4,98V4H50V26H70l.002,72Z"/>
    <polygon points="20.135 58.888 27.885 58.888 27.885 51 20.078 51 20.078 43.111 27.885 43.111 27.885 35.222 20.078 35.222 20.078 27.333 12.189 27.333 12.189 35.222 19.996 35.222 19.996 43.111 12.189 43.111 12.189 51 19.996 51 19.996 58.888 12.248 58.888 12.248 66.778 20.055 66.778 20.055 74.667 27.941 74.667 27.941 66.778 20.135 66.778 20.135 58.888"/>
    <polygon points="35.889 58.888 43.639 58.888 43.639 51 35.832 51 35.832 43.111 43.639 43.111 43.639 35.222 35.832 35.222 35.832 27.333 27.941 27.333 27.941 35.222 35.748 35.222 35.748 43.111 27.941 43.111 27.941 51 35.748 51 35.748 58.888 28 58.888 28 66.778 35.807 66.778 35.807 74.667 43.695 74.667 43.695 66.778 35.889 66.778 35.889 58.888"/>
    <polygon points="51.643 58.888 59.391 58.888 59.391 51 51.584 51 51.584 43.111 59.391 43.111 59.391 36.417 59.391 35.225 51.502 35.225 51.502 43.111 43.695 43.111 43.695 51 51.502 51 51.502 58.888 43.752 58.888 43.752 66.777 51.561 66.777 51.561 74.667 59.448 74.667 59.448 66.777 51.643 66.777 51.643 58.888"/>
    <rect x="43.695" y="27.333" width="7.889" height="7.889"/>
  </g>
</svg>
