<svg xmlns="http://www.w3.org/2000/svg" width="74" height="102" viewBox="0 0 74 102">
  <title>txt</title>
  <g>
    <path d="M73.98,24.443a1.97466,1.97466,0,0,0-.478-1.295L53.838.684c-.006-.006-.012-.008-.016-.014a2.01119,2.01119,0,0,0-.398-.334c-.043-.028-.086-.053-.131-.078a2.02094,2.02094,0,0,0-.395-.165c-.037-.011-.07-.026-.107-.036A1.94932,1.94932,0,0,0,52.332,0H4A4.00531,4.00531,0,0,0,0,4V98a4.00467,4.00467,0,0,0,4,4H70a4.00467,4.00467,0,0,0,4-4V24.667A2.11829,2.11829,0,0,0,73.98,24.443ZM24.992,77.52H18.369V97.173H12.863V77.52H6.347V72.914H24.992ZM41.336,97.173l-2.195-4.392c-.899-1.691-1.477-2.951-2.16-4.355h-.072c-.504,1.404-1.115,2.664-1.871,4.355l-2.016,4.392H26.758l7.02-12.274L27.01,72.912h6.299l2.125,4.428c.719,1.475,1.26,2.663,1.836,4.031h.072c.574-1.548,1.043-2.628,1.654-4.031l2.053-4.428h6.264l-6.84,11.842,7.199,12.419ZM67.652,77.52H61.029V97.173H55.521V77.52H49.004V72.914H67.65V77.52ZM4,67.917V4H50.332V24.466a2.00073,2.00073,0,0,0,2,2H70V67.917Z"/>
    <path d="M18.287,27.457H40.475a1.3325,1.3325,0,1,0,0-2.665H18.287a1.3325,1.3325,0,0,0,0,2.665Z"/>
    <path d="M54.666,35.45H18.252a1.3325,1.3325,0,0,0,0,2.665H54.666a1.3325,1.3325,0,1,0,0-2.665Z"/>
    <path d="M54.666,46.033H18.252a1.333,1.333,0,0,0,0,2.666H54.666a1.333,1.333,0,1,0,0-2.666Z"/>
    <path d="M54.666,56.87H18.252a1.3325,1.3325,0,0,0,0,2.665H54.666a1.3325,1.3325,0,1,0,0-2.665Z"/>
  </g>
</svg>
