<svg xmlns="http://www.w3.org/2000/svg" width="74" height="102" viewBox="0 0 74 102">
  <title>wcs</title>
  <path d="M22.749,44.629h6.458V38.056H22.701V31.482h6.506V24.907H22.701V18.333H16.127v6.574h6.506v6.575H16.127v6.574h6.506v6.573H16.176v6.575h6.506v6.573h6.572V51.204H22.749Zm13.128,0h6.458V38.056H35.83V31.482h6.505V24.907H35.83V18.333H29.254v6.574H35.76v6.575H29.254v6.574H35.76v6.573H29.303v6.575h6.506v6.573h6.574V51.204H35.877ZM73.98,24.443a1.97466,1.97466,0,0,0-.478-1.295L53.838.684c-.004-.006-.01-.008-.016-.014a1.99958,1.99958,0,0,0-.396-.334c-.043-.028-.086-.053-.131-.078A2.12884,2.12884,0,0,0,52.9.093c-.037-.011-.07-.026-.109-.036A1.94561,1.94561,0,0,0,52.334,0H4A4.00531,4.00531,0,0,0,0,4V98a4.00467,4.00467,0,0,0,4,4H70a4.00467,4.00467,0,0,0,4-4V24.667A2.11829,2.11829,0,0,0,73.98,24.443ZM27.904,96.082H22.788L21.02,87.091c-.403-2.108-.744-4.062-.992-6.448h-.062c-.372,2.354-.713,4.34-1.209,6.448l-1.984,8.991H11.595v-.001L6.634,75.184h5.054l1.582,8.588c.465,2.514.899,5.209,1.24,7.317h.062c.341-2.263.837-4.774,1.364-7.379l1.768-8.526h5.023l1.674,8.807c.465,2.449.806,4.683,1.116,7.008h.062c.31-2.325.775-4.773,1.209-7.286l1.705-8.524h4.806Zm18.268-3.598a11.20684,11.20684,0,0,0,3.969-.683l.683,3.722a13.943,13.943,0,0,1-5.333.896c-7.225,0-10.945-4.525-10.945-10.479,0-7.131,5.085-11.068,11.41-11.068a11.82387,11.82387,0,0,1,5.146.93l-.992,3.721a10.0227,10.0227,0,0,0-3.969-.772c-3.721,0-6.636,2.265-6.636,6.914C39.505,89.85,41.984,92.484,46.172,92.484Zm12.902,3.907a13.58845,13.58845,0,0,1-5.922-1.303l.961-3.875a11.944,11.944,0,0,0,5.24,1.303c2.17,0,3.316-.897,3.316-2.264,0-1.303-.992-2.047-3.503-2.914-3.474-1.24-5.767-3.163-5.767-6.201,0-3.566,3.008-6.264,7.906-6.264a12.20512,12.20512,0,0,1,5.332,1.055L65.583,79.71a9.7855,9.7855,0,0,0-4.341-.992c-2.047,0-3.039.962-3.039,2.017,0,1.332,1.146,1.923,3.876,2.945,3.688,1.363,5.396,3.285,5.396,6.231C67.477,93.414,64.811,96.391,59.074,96.391ZM4,68V4H48.956V18.333H42.383v6.574h6.573v.002h-.067v6.573H42.383v6.574h6.506v6.573H42.43v6.574h6.508v6.574H55.51V51.203H49.005V44.629h6.457V38.056H48.956V31.482h6.506V26H70l.002,42Z"/>
</svg>
