<svg xmlns="http://www.w3.org/2000/svg" width="74" height="102" viewBox="0 0 74 102">
  <title>wps</title>
  <g>
    <path d="M73.98,24.443a1.97266,1.97266,0,0,0-.476-1.295L53.838.684c-.004-.006-.01-.008-.016-.014a1.99958,1.99958,0,0,0-.396-.334c-.043-.028-.086-.053-.131-.078A2.12884,2.12884,0,0,0,52.9.093c-.037-.011-.07-.026-.107-.036A1.96242,1.96242,0,0,0,52.334,0H4A4.00531,4.00531,0,0,0,0,4V98a4.00467,4.00467,0,0,0,4,4H70a4.00338,4.00338,0,0,0,4-4V24.667A2.11829,2.11829,0,0,0,73.98,24.443ZM4,67.917V4H50.334V24.466a2.00009,2.00009,0,0,0,2,2H70l.002,41.451ZM11.324,95.79,6.277,74.529H11.42l1.608,8.737c.473,2.556.915,5.3,1.262,7.445h.062c.348-2.304.853-4.858,1.388-7.508l1.798-8.675h5.11l1.704,8.959c.473,2.491.819,4.762,1.135,7.129h.063c.315-2.367.788-4.858,1.23-7.413l1.735-8.675h4.89L27.917,95.79H22.712l-1.798-9.148c-.409-2.145-.757-4.132-1.009-6.561h-.063c-.378,2.397-.726,4.416-1.23,6.561L16.593,95.79ZM35.892,74.813a39.25935,39.25935,0,0,1,6.497-.442c2.967,0,5.079.567,6.499,1.704a6.11843,6.11843,0,0,1,2.271,4.92,6.62857,6.62857,0,0,1-1.955,5.048,10.014,10.014,0,0,1-6.909,2.24,8.20165,8.20165,0,0,1-1.64-.128V95.79H35.891V74.813Zm4.763,9.653a7.14336,7.14336,0,0,0,1.608.126c2.555,0,4.132-1.294,4.132-3.438,0-1.955-1.355-3.122-3.785-3.122a8.56179,8.56179,0,0,0-1.955.157Zm13.718,6.372a12.14921,12.14921,0,0,0,5.33,1.325c2.208,0,3.375-.915,3.375-2.304,0-1.324-1.009-2.081-3.564-2.965-3.533-1.262-5.867-3.217-5.867-6.31,0-3.627,3.06-6.372,8.045-6.372a12.45541,12.45541,0,0,1,5.425,1.073l-1.073,3.849a9.93494,9.93494,0,0,0-4.415-1.01c-2.082,0-3.093.979-3.093,2.051,0,1.357,1.168,1.956,3.944,2.996,3.754,1.389,5.488,3.345,5.488,6.34,0,3.566-2.713,6.594-8.548,6.594a13.85639,13.85639,0,0,1-6.025-1.325Z"/>
    <path d="M41.203,42.434a5.11116,5.11116,0,0,1,2.854-2.792.31678.31678,0,0,0,.197-.289V35.468a.32989.32989,0,0,0-.197-.296,5.08031,5.08031,0,0,1-2.812-6.78.32983.32983,0,0,0-.063-.349l-2.748-2.747a.27911.27911,0,0,0-.353-.068,5.084,5.084,0,0,1-6.78-2.808.31508.31508,0,0,0-.29-.197H27.127a.31711.31711,0,0,0-.293.197,5.08169,5.08169,0,0,1-6.783,2.808.27673.27673,0,0,0-.347.068l-2.75,2.747a.33042.33042,0,0,0-.066.352,5.08189,5.08189,0,0,1-2.806,6.777.317.317,0,0,0-.204.296v3.885a.31282.31282,0,0,0,.204.289,5.08949,5.08949,0,0,1,2.806,6.786.31933.31933,0,0,0,.066.344l2.75,2.751a.26415.26415,0,0,0,.347.063,5.08891,5.08891,0,0,1,6.782,2.809.31454.31454,0,0,0,.293.198H31.01a.31057.31057,0,0,0,.29-.198,5.09151,5.09151,0,0,1,6.786-2.809.269.269,0,0,0,.348-.063l2.746-2.751a.31462.31462,0,0,0,.064-.344A5.13521,5.13521,0,0,1,41.203,42.434Zm-12.136,2.53a7.558,7.558,0,1,1,7.557-7.558A7.55971,7.55971,0,0,1,29.067,44.964Z"/>
    <path d="M57.07,47.733a2.54948,2.54948,0,0,1-1.413-3.404.16452.16452,0,0,0-.033-.176l-1.379-1.378a.13906.13906,0,0,0-.178-.034,2.55316,2.55316,0,0,1-3.403-1.41.15626.15626,0,0,0-.146-.1H48.567a.15627.15627,0,0,0-.146.1,2.55124,2.55124,0,0,1-3.404,1.41.13651.13651,0,0,0-.175.034l-1.381,1.378a.16437.16437,0,0,0-.032.179,2.55046,2.55046,0,0,1-1.408,3.401.15909.15909,0,0,0-.103.149v1.951a.15686.15686,0,0,0,.103.145,2.55545,2.55545,0,0,1,1.408,3.406.16446.16446,0,0,0,.032.175l1.381,1.381a.13173.13173,0,0,0,.175.029,2.53586,2.53586,0,0,1,1.025-.215,2.5023,2.5023,0,0,1,.977.195,2.55725,2.55725,0,0,1,1.402,1.43.15483.15483,0,0,0,.146.1h1.951a.1568.1568,0,0,0,.146-.1,2.55786,2.55786,0,0,1,3.407-1.41.13264.13264,0,0,0,.174-.029l1.379-1.381a.161.161,0,0,0,.033-.175,2.5525,2.5525,0,0,1,1.413-3.406.157.157,0,0,0,.099-.145V47.882A.17031.17031,0,0,0,57.07,47.733ZM49.544,52.65a3.795,3.795,0,1,1,3.793-3.795A3.79554,3.79554,0,0,1,49.544,52.65Z"/>
  </g>
</svg>
