<svg xmlns="http://www.w3.org/2000/svg" width="74" height="102" viewBox="0 0 74 102">
  <title>xls</title>
  <g>
    <path d="M73.981,24.444a1.96745,1.96745,0,0,0-.476-1.295L53.837.684c-.004-.006-.01-.008-.016-.014a1.99958,1.99958,0,0,0-.396-.334c-.043-.028-.086-.053-.131-.078A2.11978,2.11978,0,0,0,52.9.093c-.037-.011-.07-.026-.107-.036A2.01863,2.01863,0,0,0,52.333,0H4A4.00531,4.00531,0,0,0,0,4V98a4.004,4.004,0,0,0,4,4H70a4.00274,4.00274,0,0,0,4-4V24.668C74,24.592,73.988,24.518,73.981,24.444ZM23.258,96.892,21.012,92.4c-.92-1.73-1.51-3.02-2.209-4.455h-.074c-.516,1.438-1.141,2.725-1.914,4.455l-2.063,4.492H8.346l7.18-12.557L8.604,72.075h6.443l2.172,4.529c.736,1.509,1.289,2.726,1.879,4.123h.072c.59-1.583,1.068-2.688,1.693-4.123l2.1-4.529h6.406L22.374,84.189l7.365,12.703Zm24.997,0H32.754V72.076h5.635V92.18h9.866Zm9.388.367a16.20317,16.20317,0,0,1-7.031-1.51l1.142-4.639a14.35378,14.35378,0,0,0,6.223,1.546c2.578,0,3.939-1.067,3.939-2.688,0-1.547-1.179-2.43-4.16-3.498-4.123-1.436-6.813-3.719-6.813-7.326,0-4.234,3.535-7.475,9.392-7.475a15.22038,15.22038,0,0,1,6.332,1.252l-1.252,4.528a11.79506,11.79506,0,0,0-5.191-1.179c-2.43,0-3.607,1.104-3.607,2.395,0,1.582,1.398,2.282,4.602,3.498,4.382,1.619,6.443,3.901,6.443,7.399C67.659,93.726,64.457,97.259,57.643,97.259ZM4,67.917V4.001H50.333V24.467a2.00073,2.00073,0,0,0,2,2H70l.002,41.451H4Z"/>
    <path d="M42.917,25.625H9.75v31H60.5v-31Zm0,15H27.334v-6.5H42.917Zm-32.167-14H26.333v6.5H10.75Zm0,7.5H26.333v6.5H10.75Zm0,7.5H26.333v6.5H10.75Zm0,14v-6.5H26.333v6.5Zm16.584,0v-6.5H42.917v6.5Zm32.166,0H43.917v-6.5H59.5Zm0-15H43.917v-6.5H59.5Zm-15.583-7.5v-6.5H59.5v6.5Z"/>
  </g>
</svg>
