<svg xmlns="http://www.w3.org/2000/svg" width="74" height="102" viewBox="0 0 74 102">
  <title>xml</title>
  <g>
    <path d="M73.979,24.442a1.96316,1.96316,0,0,0-.475-1.295L53.838.682a.112.112,0,0,1-.016-.013,1.97774,1.97774,0,0,0-.398-.334c-.043-.028-.086-.054-.131-.078a2.01093,2.01093,0,0,0-.395-.165c-.037-.011-.07-.027-.107-.035A1.94933,1.94933,0,0,0,52.332,0H4A4.00338,4.00338,0,0,0,0,4V98a4.004,4.004,0,0,0,4,4H70a4.00531,4.00531,0,0,0,4-4V24.666A1.88405,1.88405,0,0,0,73.979,24.442ZM18.871,94.545l-1.977-3.949c-.809-1.521-1.326-2.654-1.941-3.918h-.064c-.453,1.264-1.004,2.396-1.684,3.918l-1.813,3.949H5.761l6.311-11.039L5.988,72.729h5.664l1.908,3.98c.648,1.328,1.133,2.396,1.652,3.625h.064c.518-1.391.938-2.361,1.488-3.625l1.846-3.98h5.631l-6.15,10.649,6.475,11.167Zm27.127,0-.324-8.352c-.098-2.623-.195-5.795-.195-8.967h-.096c-.68,2.784-1.586,5.892-2.428,8.448l-2.654,8.513H36.447l-2.33-8.447c-.711-2.557-1.455-5.664-1.975-8.514h-.064c-.129,2.945-.227,6.312-.389,9.03l-.387,8.287H26.738l1.393-21.817h6.57l2.137,7.284c.68,2.523,1.359,5.242,1.844,7.8h.098c.615-2.523,1.359-5.404,2.072-7.832l2.33-7.252h6.441L50.82,94.543l-4.822.002Zm22.24,0H54.609V72.729h4.953V90.403h8.676ZM70,67.916H4V4H50.332V24.465a2.00073,2.00073,0,0,0,2,2H70Z"/>
    <polygon points="7.866 43.497 19.41 48.86 19.41 46.311 10.68 42.487 10.68 42.438 19.41 38.614 19.41 36.065 7.866 41.428 7.866 43.497"/>
    <polygon points="55.783 38.614 64.707 42.438 64.707 42.487 55.783 46.311 55.783 48.86 67.327 43.569 67.327 41.356 55.783 36.065 55.783 38.614"/>
    <path d="M37.367,28.688A13.774,13.774,0,1,0,51.14,42.462,13.77422,13.77422,0,0,0,37.367,28.688Zm5.177,5.467.985-.659a4.65857,4.65857,0,0,1-.344-1.581c.238-.116,1.209.393,2.028,1.256-.552,2.054-1.847,1.809-1.847,1.809S42.42,34.957,42.544,34.155ZM34.241,46.283a9.82271,9.82271,0,0,1-.678,1.541,2.23259,2.23259,0,0,1-.679.925,2.02165,2.02165,0,0,0-.492.679l-.062,1.047a4.63812,4.63812,0,0,0,.306,1.173c.185.307-.66,2.144-.66,2.144-.536-.106-.834-.728-1.02-1.218-.186-.495-.431-.758-.369-1.311.062-.555-.479-.848-.662-1.156a2.57,2.57,0,0,1-.432-1.049c0-.309-.677-.741-.677-.741a7.1194,7.1194,0,0,1-1.419-.8,6.39275,6.39275,0,0,1-.432-1.727,6.79281,6.79281,0,0,1,.184-1.54s.498-.374.185-.679a2.22329,2.22329,0,0,1-.368-1.112l-.556-.615a3.84045,3.84045,0,0,1-.494-.926,1.76864,1.76864,0,0,1,.062-.802,7.57681,7.57681,0,0,0-.123-1.17c2.304-5.649,6.167-6.967,6.167-6.967l.309,1.292a2.4003,2.4003,0,0,1-1.046.064,2.00723,2.00723,0,0,0-.559-.124l-.491.677a5.89406,5.89406,0,0,0-.249.68,1.14293,1.14293,0,0,0,.123.615s.862.062.862-.184a.54489.54489,0,0,0-.121-.37l-.124-.432a3.95918,3.95918,0,0,1,2.034-.188c1.48.125.927,1.172,1.545,1.421.617.247-.496,1.109-.742,1.601-.246.494-.616-.617-.616-.617s.37-.427-.246-.554c-.617-.121-1.025,1.11-.713,1.05a.5797.5797,0,0,1,.588.639,3.2958,3.2958,0,0,1-.37.962,3.55637,3.55637,0,0,1-.978,1.18s-.315-.192-.133.179c.189.369-.061,1.232-.061,1.479,0,.245-.74-.432-.861-1.05-.126-.613-.848-.079-1.094-.016a.79185.79185,0,0,1-.816-.413c-.126-.31-1.237.615-1.546.799-.307.186-.182.68.309.433.493-.247.924-.062.802.434-.122.49-.614.185-.554.49.061.308.554.617.676,1.05.124.43,1.298.062,1.667-.124.369-.187,1.418-.37,1.54.124.128.494,1.297.676,1.728.798a3.826,3.826,0,0,1,1.791.679C35.167,45.049,34.306,45.974,34.241,46.283Zm2.775-14.43c-.063.618-1.047,1.418-.924,1.667.124.249,0,1.303-.863.377-.864-.925-1.729-1.239-1.665-1.858.015-.123.893-.316.907-.532,1.308-1.216,3.396-.966,3.556-.678C37.652,31.44,37.078,31.236,37.016,31.853ZM47.73,35.994c.834,1.431,2.053,5.247,1.603,5.929-.271-.122-.498-.224-.498-.224H47.189l.985,1.153a1.49778,1.49778,0,0,0,1.153.655c-.445,5.157-4.749,8.47-4.749,8.47a1.03353,1.03353,0,0,1-.328-1.231l.185-.989.104-1.664s0-1.725-1.646-.906a8.56276,8.56276,0,0,1-2.815.575c-1.788.124-1.492-3.646-1.492-3.646,0-5.643,4.327-1.384,4.327-1.384,2.469,1.642,2.798-1.362,2.798-1.362l1.808-.655.164-.824-.263-1.149-2.627-1.084a2.46016,2.46016,0,0,0,.421,1.903s-.225,1.192-.777.884l-1.522-.765a1.549,1.549,0,0,0-1.334.273,3.13239,3.13239,0,0,1-2.218-.024,1.78577,1.78577,0,0,1,.979-1.256l.707-.467a3.917,3.917,0,0,1-.023-1.501c.162-.657.453-.082,1.109-.576.657-.491,1.11.966,2.096.802.985-.165.494-.329,1.153-.657.659-.329,1.151.657,1.151.657l1.312.164A8.48054,8.48054,0,0,1,47.73,35.994Z"/>
  </g>
</svg>
